<svg xmlns="http://www.w3.org/2000/svg" xml:space="preserve" width="16" height="16" data-version="2">
    <path d="m7.28 9.12.81 1.34q-.53.46-1.2.71-.67.25-1.38.25-.55 0-1.06-.15-.5-.14-.95-.4-.44-.26-.8-.62-.37-.37-.63-.81-.26-.45-.4-.95-.15-.51-.15-1.06t.15-1.06q.14-.51.4-.95.26-.44.63-.81.36-.36.8-.62.45-.26.95-.41.51-.14 1.06-.14.71 0 1.38.25.67.24 1.2.71l-.81 1.34q-.34-.37-.8-.56-.47-.2-.97-.2-.51 0-.96.2-.44.19-.78.52-.33.33-.52.78t-.19.95q0 .51.19.95.19.44.52.78.34.33.78.52.45.2.96.2.5 0 .97-.2.46-.2.8-.56" paint-order="stroke"/>
    <path d="M14.03 3.55v7.7h-1.64L9.42 6.18v5.07H7.87v-7.7h1.65l2.97 5.07V3.55z" paint-order="stroke"/>
</svg>
