<svg width="488" height="195" viewBox="0 0 488 195" fill="none" xmlns="http://www.w3.org/2000/svg">
<path d="M8.85938 46V19.8182H15.9673V40.2727H26.5526V46H8.85938ZM29.4258 46V19.8182H36.5337V40.2727H47.119V46H29.4258ZM49.9922 19.8182H58.8388L64.924 34.6477H65.2308L71.3161 19.8182H80.1626V46H73.2081V30.8636H73.0036L67.174 45.7955H62.9808L57.1513 30.7614H56.9467V46H49.9922V19.8182ZM84.6878 19.144H99.0878V22.96H84.6878V19.144ZM89.0078 28.684H93.6878V40.024H89.0078V28.684ZM97.1438 19.144H101.896V21.88C101.896 23.488 101.848 25.324 101.752 27.388C101.68 29.452 101.416 31.876 100.96 34.66L96.2798 34.264C96.7118 31.6 96.9638 29.272 97.0358 27.28C97.1078 25.264 97.1438 23.464 97.1438 21.88V19.144ZM104.74 15.832H109.492V49.168H104.74V15.832ZM108.124 29.224H113.992V33.184H108.124V29.224ZM83.4638 42.472L83.0317 38.584C84.9758 38.584 87.0878 38.572 89.3678 38.548C91.6718 38.5 93.9998 38.416 96.3518 38.296C98.7278 38.152 101.02 37.948 103.228 37.684L103.444 41.176C101.188 41.536 98.8838 41.812 96.5318 42.004C94.2038 42.196 91.9238 42.328 89.6918 42.4C87.4598 42.448 85.3838 42.472 83.4638 42.472ZM123.82 46V19.8182H135.121C137.065 19.8182 138.765 20.1719 140.222 20.8793C141.68 21.5866 142.813 22.6051 143.623 23.9347C144.433 25.2642 144.837 26.858 144.837 28.7159C144.837 30.5909 144.42 32.1719 143.585 33.4588C142.758 34.7457 141.594 35.7173 140.094 36.3736C138.603 37.0298 136.86 37.358 134.866 37.358H128.116V31.8352H133.434C134.269 31.8352 134.981 31.733 135.569 31.5284C136.165 31.3153 136.621 30.9787 136.937 30.5185C137.261 30.0582 137.423 29.4574 137.423 28.7159C137.423 27.9659 137.261 27.3565 136.937 26.8878C136.621 26.4105 136.165 26.0611 135.569 25.8395C134.981 25.6094 134.269 25.4943 133.434 25.4943H130.928V46H123.82ZM139.161 33.983L145.707 46H137.985L131.593 33.983H139.161ZM154.668 46H146.998L155.64 19.8182H165.356L173.998 46H166.327L160.6 27.0284H160.396L154.668 46ZM153.237 35.6705H167.657V40.9886H153.237V35.6705ZM192.292 28.4602C192.181 28.0085 192.006 27.6122 191.768 27.2713C191.529 26.9219 191.231 26.6278 190.873 26.3892C190.523 26.142 190.114 25.9588 189.646 25.8395C189.185 25.7116 188.678 25.6477 188.124 25.6477C186.931 25.6477 185.913 25.9332 185.069 26.5043C184.234 27.0753 183.594 27.8977 183.151 28.9716C182.717 30.0455 182.499 31.3409 182.499 32.858C182.499 34.392 182.708 35.7045 183.126 36.7955C183.543 37.8864 184.165 38.7216 184.992 39.3011C185.819 39.8807 186.846 40.1705 188.073 40.1705C189.156 40.1705 190.055 40.0128 190.771 39.6974C191.495 39.3821 192.036 38.9347 192.394 38.3551C192.752 37.7756 192.931 37.0937 192.931 36.3097L194.158 36.4375H188.175V31.375H199.783V35.0057C199.783 37.392 199.276 39.4332 198.262 41.1293C197.256 42.8168 195.867 44.1122 194.094 45.0156C192.33 45.9105 190.306 46.358 188.022 46.358C185.474 46.358 183.237 45.8168 181.31 44.7344C179.384 43.652 177.88 42.1094 176.798 40.1065C175.724 38.1037 175.187 35.7216 175.187 32.9602C175.187 30.7955 175.515 28.8778 176.171 27.2074C176.836 25.5369 177.756 24.1264 178.933 22.9759C180.109 21.8168 181.468 20.9432 183.011 20.3551C184.553 19.7585 186.207 19.4602 187.971 19.4602C189.522 19.4602 190.962 19.6818 192.292 20.125C193.63 20.5597 194.81 21.1818 195.833 21.9915C196.864 22.7926 197.695 23.7429 198.326 24.8423C198.957 25.9418 199.34 27.1477 199.477 28.4602H192.292ZM202.886 30.808H233.054V34.264H202.886V30.808ZM206.27 35.956H229.49V43.876H211.058V46.72H206.306V40.852H224.774V39.196H206.27V35.956ZM206.306 45.676H230.426V48.916H206.306V45.676ZM206.558 16.408H229.382V24.292H211.346V26.992H206.63V21.268H224.666V19.648H206.558V16.408ZM206.63 26.02H229.994V29.26H206.63V26.02ZM264.811 15.832H269.599V35.452H264.811V15.832ZM267.943 23.68H273.811V27.64H267.943V23.68ZM247.171 36.64H269.599V44.2H251.959V46.864H247.243V41.248H264.883V39.808H247.171V36.64ZM247.243 45.784H270.751V48.988H247.243V45.784ZM250.699 29.188H255.487V33.94H250.699V29.188ZM243.247 35.164L242.779 31.888C244.747 31.888 246.895 31.876 249.223 31.852C251.551 31.804 253.927 31.72 256.351 31.6C258.775 31.48 261.115 31.276 263.371 30.988L263.695 33.868C261.367 34.276 258.991 34.576 256.567 34.768C254.167 34.936 251.827 35.044 249.547 35.092C247.291 35.14 245.191 35.164 243.247 35.164ZM243.607 17.92H262.543V21.088H243.607V17.92ZM253.075 21.7C255.547 21.7 257.515 22.084 258.979 22.852C260.467 23.62 261.211 24.7 261.211 26.092C261.211 27.46 260.467 28.54 258.979 29.332C257.515 30.1 255.547 30.484 253.075 30.484C250.603 30.484 248.635 30.1 247.171 29.332C245.707 28.54 244.975 27.46 244.975 26.092C244.975 24.724 245.707 23.656 247.171 22.888C248.635 22.096 250.603 21.7 253.075 21.7ZM253.075 24.652C251.947 24.652 251.071 24.772 250.447 25.012C249.823 25.252 249.511 25.612 249.511 26.092C249.511 26.572 249.823 26.932 250.447 27.172C251.071 27.412 251.947 27.532 253.075 27.532C254.227 27.532 255.115 27.412 255.739 27.172C256.363 26.932 256.675 26.572 256.675 26.092C256.675 25.612 256.363 25.252 255.739 25.012C255.115 24.772 254.227 24.652 253.075 24.652ZM250.699 15.58H255.487V19.684H250.699V15.58ZM283.06 26.992H287.812V33.112H283.06V26.992ZM294.76 26.992H299.548V33.112H294.76V26.992ZM276.256 31.672H306.424V35.416H276.256V31.672ZM291.268 37.108C294.868 37.108 297.7 37.636 299.764 38.692C301.828 39.724 302.86 41.212 302.86 43.156C302.86 45.076 301.828 46.564 299.764 47.62C297.7 48.676 294.868 49.204 291.268 49.204C287.668 49.204 284.836 48.676 282.772 47.62C280.732 46.564 279.712 45.076 279.712 43.156C279.712 41.212 280.732 39.724 282.772 38.692C284.836 37.636 287.668 37.108 291.268 37.108ZM291.268 40.708C289.78 40.708 288.532 40.804 287.524 40.996C286.54 41.164 285.796 41.428 285.292 41.788C284.788 42.148 284.536 42.604 284.536 43.156C284.536 43.708 284.788 44.176 285.292 44.56C285.796 44.92 286.54 45.184 287.524 45.352C288.532 45.52 289.78 45.604 291.268 45.604C292.756 45.604 293.992 45.52 294.976 45.352C295.984 45.184 296.74 44.92 297.244 44.56C297.748 44.176 298 43.708 298 43.156C298 42.604 297.748 42.148 297.244 41.788C296.74 41.428 295.984 41.164 294.976 40.996C293.992 40.804 292.756 40.708 291.268 40.708ZM291.34 16.336C293.812 16.336 295.948 16.6 297.748 17.128C299.572 17.632 300.976 18.364 301.96 19.324C302.944 20.284 303.436 21.424 303.436 22.744C303.436 24.064 302.944 25.204 301.96 26.164C300.976 27.1 299.572 27.832 297.748 28.36C295.948 28.864 293.812 29.116 291.34 29.116C288.916 29.116 286.792 28.864 284.968 28.36C283.144 27.832 281.74 27.1 280.756 26.164C279.772 25.204 279.28 24.064 279.28 22.744C279.28 21.424 279.772 20.284 280.756 19.324C281.74 18.364 283.144 17.632 284.968 17.128C286.792 16.6 288.916 16.336 291.34 16.336ZM291.34 19.972C289.852 19.972 288.568 20.08 287.488 20.296C286.408 20.488 285.592 20.788 285.04 21.196C284.512 21.604 284.248 22.12 284.248 22.744C284.248 23.344 284.512 23.848 285.04 24.256C285.592 24.664 286.408 24.976 287.488 25.192C288.568 25.384 289.852 25.48 291.34 25.48C292.876 25.48 294.172 25.384 295.228 25.192C296.284 24.976 297.088 24.664 297.64 24.256C298.192 23.848 298.468 23.344 298.468 22.744C298.468 22.12 298.192 21.604 297.64 21.196C297.088 20.788 296.284 20.488 295.228 20.296C294.172 20.08 292.876 19.972 291.34 19.972ZM330.83 15.868H335.618V40.78H330.83V15.868ZM334.286 26.02H340.046V29.98H334.286V26.02ZM309.41 19.36H328.994V23.104H309.41V19.36ZM319.202 24.292C320.81 24.292 322.226 24.568 323.45 25.12C324.698 25.648 325.67 26.404 326.366 27.388C327.062 28.348 327.41 29.452 327.41 30.7C327.41 31.972 327.062 33.1 326.366 34.084C325.67 35.044 324.698 35.8 323.45 36.352C322.226 36.88 320.81 37.144 319.202 37.144C317.618 37.144 316.202 36.88 314.954 36.352C313.706 35.8 312.734 35.044 312.038 34.084C311.342 33.1 310.994 31.972 310.994 30.7C310.994 29.452 311.342 28.348 312.038 27.388C312.734 26.404 313.706 25.648 314.954 25.12C316.202 24.568 317.618 24.292 319.202 24.292ZM319.202 27.928C318.146 27.928 317.282 28.168 316.61 28.648C315.938 29.128 315.602 29.824 315.602 30.736C315.602 31.624 315.938 32.308 316.61 32.788C317.282 33.268 318.146 33.508 319.202 33.508C320.282 33.508 321.146 33.268 321.794 32.788C322.466 32.308 322.802 31.624 322.802 30.736C322.802 29.824 322.466 29.128 321.794 28.648C321.146 28.168 320.282 27.928 319.202 27.928ZM316.826 15.832H321.578V21.16H316.826V15.832ZM314.126 44.776H336.806V48.628H314.126V44.776ZM314.126 38.908H318.95V46.432H314.126V38.908ZM349.771 18.676H368.095V22.456H349.771V18.676ZM359.131 23.572C360.643 23.572 361.987 23.848 363.163 24.4C364.339 24.952 365.263 25.708 365.935 26.668C366.631 27.628 366.979 28.72 366.979 29.944C366.979 31.192 366.631 32.296 365.935 33.256C365.263 34.216 364.339 34.972 363.163 35.524C361.987 36.076 360.643 36.352 359.131 36.352C357.667 36.352 356.347 36.076 355.171 35.524C353.995 34.972 353.059 34.216 352.363 33.256C351.667 32.296 351.319 31.192 351.319 29.944C351.319 28.72 351.667 27.628 352.363 26.668C353.059 25.708 353.995 24.952 355.171 24.4C356.347 23.848 357.667 23.572 359.131 23.572ZM359.167 27.208C358.183 27.208 357.367 27.448 356.719 27.928C356.095 28.408 355.783 29.092 355.783 29.98C355.783 30.844 356.095 31.516 356.719 31.996C357.367 32.476 358.183 32.716 359.167 32.716C360.127 32.716 360.919 32.476 361.543 31.996C362.191 31.516 362.515 30.844 362.515 29.98C362.515 29.092 362.191 28.408 361.543 27.928C360.919 27.448 360.127 27.208 359.167 27.208ZM356.755 15.58H361.579V21.34H356.755V15.58ZM372.775 15.868H377.599V37.072H372.775V15.868ZM368.491 23.32H374.575V27.1H368.491V23.32ZM368.419 29.728H374.503V33.508H368.419V29.728ZM354.847 38.584H377.599V49.204H372.775V42.328H354.847V38.584ZM405.712 15.868H410.5V40.168H405.712V15.868ZM388.288 44.776H411.364V48.628H388.288V44.776ZM388.288 37.828H393.076V46.756H388.288V37.828ZM390.628 17.704H394.588V20.944C394.588 23.104 394.24 25.168 393.544 27.136C392.872 29.104 391.84 30.832 390.448 32.32C389.056 33.808 387.28 34.936 385.12 35.704L382.672 31.888C384.544 31.24 386.056 30.34 387.208 29.188C388.384 28.036 389.248 26.74 389.8 25.3C390.352 23.86 390.628 22.408 390.628 20.944V17.704ZM391.6 17.704H395.488V20.944C395.488 22.024 395.632 23.092 395.92 24.148C396.232 25.18 396.7 26.164 397.324 27.1C397.948 28.012 398.752 28.84 399.736 29.584C400.72 30.328 401.884 30.916 403.228 31.348L400.816 35.128C398.704 34.432 396.964 33.376 395.596 31.96C394.228 30.544 393.22 28.888 392.572 26.992C391.924 25.096 391.6 23.08 391.6 20.944V17.704ZM423.637 19.18H427.525V21.268C427.525 23.356 427.189 25.36 426.517 27.28C425.845 29.176 424.813 30.832 423.421 32.248C422.053 33.664 420.289 34.72 418.129 35.416L415.753 31.636C417.121 31.18 418.297 30.592 419.281 29.872C420.289 29.128 421.105 28.288 421.729 27.352C422.377 26.416 422.857 25.432 423.169 24.4C423.481 23.368 423.637 22.324 423.637 21.268V19.18ZM424.645 19.18H428.461V21.268C428.461 22.564 428.725 23.86 429.253 25.156C429.781 26.428 430.597 27.58 431.701 28.612C432.829 29.62 434.269 30.424 436.021 31.024L433.681 34.804C431.617 34.108 429.913 33.076 428.569 31.708C427.249 30.34 426.265 28.756 425.617 26.956C424.969 25.132 424.645 23.236 424.645 21.268V19.18ZM434.077 23.788H440.377V27.676H434.077V23.788ZM417.049 17.668H434.977V21.484H417.049V17.668ZM421.081 37.18H443.833V49.204H439.009V40.996H421.081V37.18ZM439.009 15.868H443.833V35.668H439.009V15.868ZM471.946 15.868H476.734V39.808H471.946V15.868ZM454.522 44.776H477.598V48.628H454.522V44.776ZM454.522 37.432H459.31V46.36H454.522V37.432ZM458.59 17.992C460.294 17.992 461.83 18.352 463.198 19.072C464.566 19.792 465.646 20.788 466.438 22.06C467.254 23.332 467.662 24.796 467.662 26.452C467.662 28.06 467.254 29.512 466.438 30.808C465.646 32.08 464.566 33.088 463.198 33.832C461.83 34.552 460.294 34.912 458.59 34.912C456.886 34.912 455.35 34.552 453.982 33.832C452.614 33.088 451.522 32.08 450.706 30.808C449.914 29.512 449.518 28.06 449.518 26.452C449.518 24.796 449.914 23.332 450.706 22.06C451.522 20.788 452.614 19.792 453.982 19.072C455.35 18.352 456.886 17.992 458.59 17.992ZM458.59 22.096C457.774 22.096 457.03 22.276 456.358 22.636C455.686 22.972 455.158 23.464 454.774 24.112C454.39 24.736 454.198 25.516 454.198 26.452C454.198 27.34 454.39 28.108 454.774 28.756C455.158 29.38 455.686 29.872 456.358 30.232C457.03 30.568 457.774 30.736 458.59 30.736C459.406 30.736 460.15 30.568 460.822 30.232C461.494 29.872 462.022 29.38 462.406 28.756C462.79 28.108 462.982 27.34 462.982 26.452C462.982 25.516 462.79 24.736 462.406 24.112C462.022 23.464 461.494 22.972 460.822 22.636C460.15 22.276 459.406 22.096 458.59 22.096ZM25.524 80.868H30.096V114.204H25.524V80.868ZM21.528 93.648H27.072V97.5H21.528V93.648ZM18.54 81.408H23.004V112.62H18.54V81.408ZM1.692 84.576H16.956V88.392H1.692V84.576ZM1.656 106.644L1.152 102.72C2.184 102.72 3.36 102.72 4.68 102.72C6 102.696 7.38 102.66 8.82 102.612C10.284 102.54 11.736 102.456 13.176 102.36C14.616 102.24 15.948 102.096 17.172 101.928L17.496 105.42C15.816 105.756 14.004 106.02 12.06 106.212C10.116 106.404 8.232 106.524 6.408 106.572C4.584 106.62 3 106.644 1.656 106.644ZM3.78 87.024H8.1V103.728H3.78V87.024ZM10.548 87.024H14.868V103.728H10.548V87.024ZM52.1612 85.188H58.8212V89.004H52.1612V85.188ZM52.1612 91.596H58.8212V95.412H52.1612V91.596ZM42.2252 82.74H46.0772V86.592C46.0772 88.896 45.7532 91.056 45.1052 93.072C44.4572 95.088 43.4612 96.852 42.1172 98.364C40.7732 99.852 39.0452 100.992 36.9332 101.784L34.3772 98.076C35.7692 97.572 36.9572 96.924 37.9412 96.132C38.9252 95.34 39.7292 94.44 40.3532 93.432C40.9772 92.4 41.4452 91.308 41.7572 90.156C42.0692 88.98 42.2252 87.792 42.2252 86.592V82.74ZM43.1972 82.74H47.0492V86.592C47.0492 87.72 47.1932 88.848 47.4812 89.976C47.7692 91.08 48.2132 92.124 48.8132 93.108C49.4132 94.092 50.1812 94.98 51.1172 95.772C52.0532 96.564 53.1812 97.2 54.5012 97.68L51.8732 101.424C49.9052 100.632 48.2732 99.492 46.9772 98.004C45.7052 96.516 44.7572 94.788 44.1332 92.82C43.5092 90.852 43.1972 88.776 43.1972 86.592V82.74ZM57.6692 80.868H62.4932V105.528H57.6692V80.868ZM40.4252 109.776H63.2132V113.628H40.4252V109.776ZM40.4252 103.296H45.2132V112.224H40.4252V103.296ZM78.2663 83.604H99.2903V87.456H78.2663V83.604ZM74.8463 106.5H105.014V110.352H74.8463V106.5ZM97.3463 83.604H102.098V86.556C102.098 87.9 102.074 89.34 102.026 90.876C102.002 92.412 101.882 94.128 101.666 96.024C101.45 97.92 101.09 100.092 100.586 102.54L95.8343 102.036C96.6023 98.652 97.0463 95.712 97.1663 93.216C97.2863 90.696 97.3463 88.476 97.3463 86.556V83.604ZM98.2103 91.632V95.268L77.8703 96.348L77.2583 92.28L98.2103 91.632ZM85.5383 98.508H90.3623V107.904H85.5383V98.508ZM130.859 80.832H135.647V114.276H130.859V80.832ZM110.015 102.36H112.895C115.223 102.36 117.263 102.336 119.015 102.288C120.791 102.24 122.411 102.144 123.875 102C125.363 101.856 126.851 101.64 128.339 101.352L128.771 105.312C127.259 105.6 125.735 105.828 124.199 105.996C122.687 106.14 121.019 106.236 119.195 106.284C117.371 106.308 115.271 106.32 112.895 106.32H110.015V102.36ZM110.015 83.784H126.071V87.672H114.767V103.872H110.015V83.784ZM142.377 84.036H147.093V103.404H142.377V84.036ZM142.377 102.18H144.717C146.709 102.18 148.593 102.12 150.369 102C152.169 101.88 154.029 101.628 155.949 101.244L156.561 105.24C154.569 105.648 152.625 105.912 150.729 106.032C148.833 106.152 146.829 106.212 144.717 106.212H142.377V102.18ZM165.237 80.832H169.809V114.168H165.237V80.832ZM151.629 91.38H159.261V95.232H151.629V91.38ZM158.181 81.408H162.645V112.692H158.181V81.408ZM197.094 80.796H201.882V114.24H197.094V80.796ZM183.918 83.136C185.622 83.136 187.134 83.628 188.454 84.612C189.774 85.572 190.806 86.952 191.55 88.752C192.318 90.528 192.702 92.628 192.702 95.052C192.702 97.5 192.318 99.624 191.55 101.424C190.806 103.2 189.774 104.58 188.454 105.564C187.134 106.524 185.622 107.004 183.918 107.004C182.238 107.004 180.738 106.524 179.418 105.564C178.098 104.58 177.054 103.2 176.286 101.424C175.542 99.624 175.17 97.5 175.17 95.052C175.17 92.628 175.542 90.528 176.286 88.752C177.054 86.952 178.098 85.572 179.418 84.612C180.738 83.628 182.238 83.136 183.918 83.136ZM183.918 87.492C183.102 87.492 182.382 87.78 181.758 88.356C181.134 88.932 180.642 89.784 180.282 90.912C179.946 92.016 179.778 93.396 179.778 95.052C179.778 96.684 179.946 98.076 180.282 99.228C180.642 100.356 181.134 101.208 181.758 101.784C182.382 102.36 183.102 102.648 183.918 102.648C184.758 102.648 185.49 102.36 186.114 101.784C186.738 101.208 187.218 100.356 187.554 99.228C187.914 98.076 188.094 96.684 188.094 95.052C188.094 93.396 187.914 92.016 187.554 90.912C187.218 89.784 186.738 88.932 186.114 88.356C185.49 87.78 184.758 87.492 183.918 87.492ZM230.535 80.796H235.323V114.24H230.535V80.796ZM224.811 92.568H231.111V96.456H224.811V92.568ZM208.827 102.864H211.527C213.375 102.864 215.079 102.84 216.639 102.792C218.223 102.744 219.759 102.66 221.247 102.54C222.735 102.42 224.259 102.252 225.819 102.036L226.287 105.816C224.679 106.08 223.095 106.272 221.535 106.392C219.999 106.512 218.415 106.596 216.783 106.644C215.151 106.692 213.399 106.716 211.527 106.716H208.827V102.864ZM208.827 83.604H224.271V87.492H213.615V104.052H208.827V83.604ZM212.499 92.892H223.155V96.636H212.499V92.892ZM247.634 107.42L247.532 108.852C247.447 110.08 247.242 111.256 246.918 112.381C246.603 113.506 246.266 114.503 245.908 115.372C245.559 116.241 245.282 116.915 245.077 117.392H240.731C240.867 116.915 241.059 116.224 241.306 115.321C241.562 114.426 241.792 113.412 241.996 112.278C242.21 111.153 242.316 110.011 242.316 108.852V107.42H247.634ZM267.152 162.752H271.904V170.636H267.152V162.752ZM269.492 147.812C271.196 147.812 272.732 148.16 274.1 148.856C275.468 149.552 276.548 150.524 277.34 151.772C278.132 152.996 278.527 154.4 278.527 155.984C278.527 157.568 278.132 158.984 277.34 160.232C276.548 161.48 275.468 162.452 274.1 163.148C272.732 163.844 271.196 164.192 269.492 164.192C267.764 164.192 266.216 163.844 264.848 163.148C263.48 162.452 262.4 161.48 261.608 160.232C260.816 158.984 260.42 157.568 260.42 155.984C260.42 154.4 260.816 152.996 261.608 151.772C262.4 150.524 263.48 149.552 264.848 148.856C266.216 148.16 267.764 147.812 269.492 147.812ZM269.492 151.88C268.628 151.88 267.86 152.048 267.188 152.384C266.54 152.696 266.024 153.164 265.64 153.788C265.256 154.388 265.064 155.12 265.064 155.984C265.064 156.872 265.256 157.628 265.64 158.252C266.024 158.852 266.54 159.32 267.188 159.656C267.86 159.968 268.628 160.124 269.492 160.124C270.332 160.124 271.076 159.968 271.724 159.656C272.396 159.32 272.924 158.852 273.308 158.252C273.692 157.628 273.884 156.872 273.884 155.984C273.884 155.12 273.692 154.388 273.308 153.788C272.924 153.164 272.396 152.696 271.724 152.384C271.076 152.048 270.332 151.88 269.492 151.88ZM281.192 145.832H285.98V179.168H281.192V145.832ZM284.504 158.9H290.372V162.86H284.504V158.9ZM259.88 172.544L259.304 168.692C261.224 168.692 263.324 168.68 265.604 168.656C267.884 168.632 270.212 168.56 272.588 168.44C274.964 168.32 277.256 168.116 279.464 167.828L279.824 171.284C277.52 171.716 275.18 172.028 272.804 172.22C270.452 172.388 268.172 172.484 265.964 172.508C263.78 172.532 261.752 172.544 259.88 172.544ZM321.373 145.868H326.161V165.92H321.373V145.868ZM324.865 154.076H330.589V158H324.865V154.076ZM304.489 167.396H326.161V178.844H304.489V167.396ZM321.481 171.14H309.205V175.064H321.481V171.14ZM299.953 148.82H319.537V152.6H299.953V148.82ZM309.745 153.608C311.377 153.608 312.805 153.86 314.029 154.364C315.253 154.868 316.213 155.576 316.909 156.488C317.605 157.376 317.953 158.42 317.953 159.62C317.953 160.796 317.605 161.84 316.909 162.752C316.213 163.64 315.253 164.336 314.029 164.84C312.805 165.344 311.377 165.596 309.745 165.596C308.137 165.596 306.709 165.344 305.461 164.84C304.237 164.336 303.277 163.64 302.581 162.752C301.885 161.84 301.537 160.796 301.537 159.62C301.537 158.42 301.885 157.376 302.581 156.488C303.277 155.576 304.237 154.868 305.461 154.364C306.709 153.86 308.137 153.608 309.745 153.608ZM309.745 157.136C308.689 157.136 307.825 157.352 307.153 157.784C306.481 158.192 306.145 158.804 306.145 159.62C306.145 160.436 306.481 161.06 307.153 161.492C307.825 161.9 308.689 162.104 309.745 162.104C310.825 162.104 311.689 161.9 312.337 161.492C313.009 161.06 313.345 160.436 313.345 159.62C313.345 158.804 313.009 158.192 312.337 157.784C311.689 157.352 310.825 157.136 309.745 157.136ZM307.369 145.616H312.121V150.872H307.369V145.616ZM337.138 149.612H341.17C341.17 151.724 341.098 153.788 340.954 155.804C340.834 157.796 340.594 159.728 340.234 161.6C339.874 163.472 339.37 165.284 338.722 167.036C338.098 168.788 337.27 170.504 336.238 172.184L332.53 170.168C333.514 168.632 334.306 167.108 334.906 165.596C335.506 164.06 335.962 162.488 336.274 160.88C336.61 159.272 336.838 157.58 336.958 155.804C337.078 154.004 337.138 152.072 337.138 150.008V149.612ZM333.646 149.612H339.694V153.464H333.646V149.612ZM344.554 149.612H348.586C348.586 151.796 348.526 153.944 348.406 156.056C348.31 158.168 348.094 160.244 347.758 162.284C347.446 164.324 346.954 166.304 346.282 168.224C345.634 170.144 344.746 172.004 343.618 173.804L339.982 171.752C340.822 170.432 341.518 169.1 342.07 167.756C342.646 166.412 343.102 165.044 343.438 163.652C343.774 162.26 344.014 160.844 344.158 159.404C344.326 157.94 344.434 156.44 344.482 154.904C344.53 153.344 344.554 151.736 344.554 150.08V149.612ZM342.142 149.612H347.29V153.464H342.142V149.612ZM357.442 145.868H361.978V179.204H357.442V145.868ZM346.966 158.36H351.718V162.176H346.966V158.36ZM350.962 146.552H355.462V177.692H350.962V146.552ZM387.535 145.868H392.323V179.204H387.535V145.868ZM391.243 158.864H397.111V162.824H391.243V158.864ZM366.007 150.764H385.447V154.58H366.007V150.764ZM375.799 156.488C377.407 156.488 378.847 156.836 380.119 157.532C381.391 158.204 382.387 159.128 383.107 160.304C383.851 161.48 384.223 162.848 384.223 164.408C384.223 165.968 383.851 167.348 383.107 168.548C382.387 169.724 381.391 170.66 380.119 171.356C378.871 172.028 377.431 172.364 375.799 172.364C374.191 172.364 372.739 172.028 371.443 171.356C370.171 170.66 369.163 169.724 368.419 168.548C367.699 167.348 367.339 165.968 367.339 164.408C367.339 162.848 367.699 161.48 368.419 160.304C369.163 159.128 370.171 158.204 371.443 157.532C372.739 156.836 374.191 156.488 375.799 156.488ZM375.799 160.376C375.031 160.376 374.359 160.532 373.783 160.844C373.207 161.156 372.751 161.612 372.415 162.212C372.079 162.812 371.911 163.544 371.911 164.408C371.911 165.248 372.079 165.98 372.415 166.604C372.751 167.204 373.207 167.672 373.783 168.008C374.359 168.32 375.031 168.476 375.799 168.476C376.543 168.476 377.203 168.32 377.779 168.008C378.355 167.672 378.811 167.204 379.147 166.604C379.483 165.98 379.651 165.248 379.651 164.408C379.651 163.544 379.483 162.812 379.147 162.212C378.811 161.612 378.355 161.156 377.779 160.844C377.203 160.532 376.543 160.376 375.799 160.376ZM373.351 146.408H378.175V152.24H373.351V146.408ZM412.408 157.064H417.952V160.952H412.408V157.064ZM405.316 148.748H408.952V154.328C408.952 156.224 408.82 158.084 408.556 159.908C408.292 161.732 407.86 163.448 407.26 165.056C406.684 166.664 405.916 168.116 404.956 169.412C404.02 170.684 402.88 171.728 401.536 172.544L398.656 168.944C399.904 168.2 400.948 167.288 401.788 166.208C402.628 165.128 403.312 163.94 403.84 162.644C404.368 161.348 404.74 160.004 404.956 158.612C405.196 157.196 405.316 155.768 405.316 154.328V148.748ZM406.36 148.748H409.924V154.112C409.924 155.48 410.02 156.836 410.212 158.18C410.428 159.524 410.764 160.808 411.22 162.032C411.676 163.256 412.276 164.384 413.02 165.416C413.788 166.448 414.748 167.336 415.9 168.08L413.272 171.824C411.976 171.008 410.872 169.976 409.96 168.728C409.072 167.456 408.364 166.028 407.836 164.444C407.308 162.86 406.924 161.192 406.684 159.44C406.468 157.688 406.36 155.912 406.36 154.112V148.748ZM423.352 145.832H427.924V179.168H423.352V145.832ZM416.584 146.372H421.048V177.692H416.584V146.372ZM439.045 162.788H443.833V172.112H439.045V162.788ZM451.141 162.788H455.929V172.112H451.141V162.788ZM432.421 171.428H462.625V175.316H432.421V171.428ZM447.469 147.488C449.869 147.488 452.005 147.86 453.877 148.604C455.773 149.348 457.249 150.392 458.305 151.736C459.385 153.056 459.925 154.628 459.925 156.452C459.925 158.252 459.385 159.824 458.305 161.168C457.249 162.488 455.773 163.52 453.877 164.264C452.005 165.008 449.869 165.38 447.469 165.38C445.093 165.38 442.957 165.008 441.061 164.264C439.189 163.52 437.713 162.488 436.633 161.168C435.553 159.824 435.013 158.252 435.013 156.452C435.013 154.628 435.553 153.056 436.633 151.736C437.713 150.392 439.189 149.348 441.061 148.604C442.957 147.86 445.093 147.488 447.469 147.488ZM447.469 151.196C445.933 151.196 444.577 151.412 443.401 151.844C442.249 152.252 441.349 152.84 440.701 153.608C440.053 154.376 439.729 155.324 439.729 156.452C439.729 157.532 440.053 158.468 440.701 159.26C441.349 160.028 442.249 160.628 443.401 161.06C444.577 161.468 445.933 161.672 447.469 161.672C449.029 161.672 450.385 161.468 451.537 161.06C452.713 160.628 453.613 160.028 454.237 159.26C454.885 158.468 455.209 157.532 455.209 156.452C455.209 155.324 454.885 154.376 454.237 153.608C453.613 152.84 452.713 152.252 451.537 151.844C450.385 151.412 449.029 151.196 447.469 151.196ZM469.688 176.409C468.699 176.409 467.851 176.064 467.143 175.374C466.445 174.675 466.099 173.827 466.108 172.83C466.099 171.858 466.445 171.027 467.143 170.337C467.851 169.646 468.699 169.301 469.688 169.301C470.625 169.301 471.452 169.646 472.168 170.337C472.892 171.027 473.259 171.858 473.267 172.83C473.259 173.494 473.084 174.099 472.743 174.645C472.411 175.182 471.976 175.612 471.439 175.936C470.902 176.251 470.318 176.409 469.688 176.409Z" fill="white"/>
<g clip-path="url(#clip0_2763_624)">
<path d="M250.944 157.753C250.751 161.055 251.334 165.14 250.673 169.167C249.127 178.605 239.7 183.027 232.68 177.615C231.837 176.967 231.32 176.752 230.351 177.523C226.653 180.462 222.633 180.804 218.593 178.563C214.547 176.318 212.25 172.473 212.12 167.381C211.942 160.305 212.083 153.221 212.038 146.146C212.031 145 212.391 144.714 213.328 144.752C214.996 144.823 216.676 144.865 218.341 144.739C219.585 144.646 219.879 145.131 219.864 146.487C219.805 153.074 219.808 159.665 219.849 166.252C219.872 170.022 222.748 172.275 225.46 170.687C226.973 169.803 227.623 168.358 227.612 166.391C227.567 159.804 227.63 153.213 227.567 146.626C227.552 145.223 227.779 144.609 229.154 144.735C230.752 144.882 232.376 144.861 233.977 144.739C235.155 144.646 235.415 145.106 235.404 146.377C235.348 152.897 235.374 159.417 235.382 165.932C235.386 169.104 236.969 171.218 239.291 171.188C241.636 171.159 243.156 169.091 243.159 165.873C243.167 159.493 243.226 153.116 243.118 146.74C243.089 144.996 243.602 144.625 244.98 144.739C246.519 144.865 248.076 144.84 249.618 144.743C250.684 144.676 250.989 145.076 250.967 146.272C250.903 149.852 250.944 153.428 250.944 157.753Z" fill="white"/>
<path d="M119.657 176.84C119.259 176.554 118.962 176.899 118.631 177.051C110.958 180.492 102.471 174.962 101.285 165.629C100.523 159.64 101.062 153.592 100.966 147.573C100.895 143.046 100.951 143.042 104.971 143.042C108.732 143.042 108.728 143.042 108.732 147.207C108.736 152.392 108.669 157.58 108.769 162.765C108.843 166.576 110.935 169.116 114.016 169.478C116.81 169.811 119.568 167.351 120.262 163.843C120.437 162.963 120.5 162.04 120.504 161.139C120.526 155.672 120.556 150.206 120.485 144.739C120.467 143.383 120.76 142.877 121.998 143.016C124.068 143.244 126.854 142.022 128.025 143.501C129.051 144.798 128.333 147.893 128.337 150.193C128.352 157.622 128.356 165.052 128.341 172.481C128.315 184.16 119.872 192.407 109.653 190.798C108.951 190.688 108.71 190.448 108.721 189.652C108.758 187.412 108.754 185.167 108.724 182.922C108.713 182.08 109.018 181.823 109.72 181.869C110.772 181.941 111.824 181.983 112.875 181.962C116.037 181.898 118.282 180.189 119.657 176.84Z" fill="white"/>
<path d="M145.798 161.847C145.798 156.662 145.791 151.474 145.813 146.289C145.817 145.788 145.52 145.013 146.125 144.828C146.738 144.642 147.452 144.533 148.02 145.215C148.767 146.108 149.306 147.75 150.254 147.755C151.183 147.759 152.078 146.458 153.055 145.876C162.059 140.506 172.821 147.696 173.003 159.248C173.099 165.414 172.999 171.584 173.043 177.75C173.051 178.871 172.873 179.414 171.754 179.3C169.621 179.081 166.823 180.294 165.537 178.799C164.504 177.594 165.233 174.423 165.221 172.119C165.203 167.983 165.24 163.847 165.207 159.716C165.173 155.807 162.721 152.965 159.447 152.956C156.136 152.948 153.624 155.723 153.587 159.602C153.535 165.557 153.524 171.517 153.602 177.472C153.62 178.963 153.245 179.439 151.952 179.3C149.942 179.081 147.24 180.26 146.099 178.841C145.103 177.603 145.806 174.587 145.795 172.359C145.787 168.855 145.798 165.351 145.798 161.847Z" fill="white"/>
<path d="M22.838 156.427C20.3706 151.693 17.357 149.856 13.9829 150.838C10.5271 151.844 8.17118 155.289 7.96309 159.657C7.74756 164.134 9.60181 167.533 13.0093 168.91C16.6138 170.367 19.75 168.956 22.7599 164.412C24.4098 166.32 26.0076 168.249 27.6873 170.081C28.5828 171.054 27.7913 171.576 27.3714 172.153C22.7302 178.55 14.2096 180.134 7.68811 175.834C1.37846 171.673 -1.43822 163.22 0.71702 154.91C2.85368 146.668 9.33427 141.256 16.6398 141.787C21.2104 142.12 24.8594 144.524 27.6464 148.639C28.2372 149.507 28.2558 150.126 27.5089 150.943C25.9148 152.687 24.4209 154.552 22.838 156.427Z" fill="white"/>
<path d="M95.4511 136.211C95.4474 133.979 96.1237 130.967 95.1241 129.716C93.9796 128.28 91.2707 129.497 89.2604 129.24C87.7666 129.051 87.5473 129.775 87.5734 131.262C87.6551 135.739 87.6031 140.225 87.6031 144.984C84.9239 142.617 83.0994 141.825 80.3459 141.745C71.7398 141.492 64.8504 148.732 64.3302 158.87C63.9623 166.063 66.3777 171.951 71.8996 175.746C77.113 179.326 82.4417 179.128 87.6514 175.443C88.6807 174.714 89.5948 172.958 90.6204 173.316C91.568 173.648 92.1811 175.358 92.8463 176.529C93.3479 177.405 93.9759 177.793 94.8491 177.582C96.0494 177.296 95.4214 176.18 95.4214 175.514C95.466 162.412 95.4623 149.309 95.4511 136.211ZM79.7439 169.454C75.426 169.344 72.1337 165.057 72.2191 159.649C72.3046 154.3 75.478 150.573 79.9 150.623C84.1324 150.674 87.7034 155.172 87.5919 160.318C87.4879 165.2 83.7497 169.555 79.7439 169.454Z" fill="white"/>
<path d="M46.111 141.736C37.3228 141.728 30.4929 149.688 30.4595 159.969C30.426 170.119 37.4194 178.332 46.0812 178.306C54.8248 178.281 61.6287 170.232 61.6101 159.943C61.5915 149.368 55.0998 141.741 46.111 141.736ZM46.0367 169.458C41.741 169.415 38.419 165.309 38.4078 160.019C38.3967 154.586 41.5478 150.669 45.9698 150.627C50.4921 150.585 53.7695 154.502 53.7807 159.977C53.7955 165.406 50.4512 169.5 46.0367 169.458Z" fill="white"/>
<path d="M192.184 143.45C183.489 143.56 176.737 151.789 176.923 162.053C177.105 172.216 184.058 180.138 192.656 179.982C201.407 179.822 208.189 171.664 208.055 161.459C207.91 150.812 201.318 143.332 192.184 143.45ZM192.433 171.146C188.134 171.083 184.812 166.96 184.816 161.691C184.819 156.266 187.982 152.362 192.407 152.324C196.911 152.282 200.196 156.233 200.203 161.695C200.211 167.12 196.848 171.209 192.433 171.146Z" fill="white"/>
</g>
<defs>
<clipPath id="clip0_2763_624">
<rect width="251" height="62" fill="white" transform="translate(0 129)"/>
</clipPath>
</defs>
</svg>
