<svg width="170" height="41" viewBox="0 0 170 41" fill="none" xmlns="http://www.w3.org/2000/svg">
<g id="Frame" clip-path="url(#clip0_2659_1698)">
<path id="Vector" d="M169.962 19.0142C169.831 21.1977 170.226 23.8993 169.778 26.5619C168.732 32.8034 162.346 35.7278 157.592 32.1489C157.021 31.72 156.671 31.5779 156.014 32.0876C153.51 34.0316 150.787 34.2572 148.051 32.7755C145.31 31.2911 143.755 28.7482 143.667 25.381C143.546 20.702 143.642 16.0174 143.612 11.3383C143.607 10.5808 143.851 10.3914 144.485 10.4165C145.615 10.4638 146.753 10.4917 147.88 10.4081C148.723 10.3468 148.922 10.6671 148.912 11.5639C148.872 15.9199 148.874 20.2786 148.902 24.6346C148.917 27.1273 150.865 28.6173 152.702 27.5673C153.727 26.9825 154.167 26.0271 154.159 24.7265C154.129 20.3705 154.172 16.0118 154.129 11.6558C154.119 10.7284 154.273 10.3218 155.204 10.4053C156.286 10.5028 157.386 10.4889 158.471 10.4081C159.268 10.3468 159.445 10.6504 159.437 11.4915C159.399 15.8029 159.417 20.1143 159.422 24.4229C159.425 26.5201 160.497 27.9183 162.07 27.8988C163.658 27.8793 164.687 26.5118 164.69 24.3839C164.695 20.1644 164.735 15.9477 164.662 11.731C164.642 10.578 164.989 10.3329 165.923 10.4081C166.965 10.4917 168.019 10.4749 169.064 10.4109C169.786 10.3663 169.992 10.6309 169.977 11.4219C169.935 13.7893 169.962 16.1538 169.962 19.0142Z" fill="#6C5044"/>
<path id="Vector_2" d="M81.0423 31.6363C80.773 31.4469 80.5717 31.6753 80.3477 31.7756C75.1506 34.051 69.4023 30.3942 68.5994 24.2223C68.0835 20.2618 68.4484 16.2624 68.383 12.2824C68.3352 9.28839 68.3729 9.2856 71.0961 9.2856C73.643 9.2856 73.6405 9.2856 73.643 12.0401C73.6455 15.4686 73.6002 18.8999 73.6682 22.3284C73.7185 24.8489 75.1355 26.5284 77.2219 26.7679C79.1145 26.9879 80.9819 25.3614 81.4526 23.0414C81.5708 22.4593 81.6136 21.8494 81.6161 21.2533C81.6312 17.6382 81.6514 14.0231 81.6036 10.408C81.591 9.5112 81.7898 9.17698 82.6279 9.26889C84.0297 9.41929 85.9173 8.6116 86.7101 9.58918C87.4047 10.447 86.919 12.4941 86.9215 14.0148C86.9316 18.9277 86.9341 23.8407 86.924 28.7537C86.9064 36.4769 81.1883 41.9302 74.2672 40.8663C73.7915 40.7939 73.6279 40.6351 73.6355 40.1087C73.6606 38.627 73.6581 37.1425 73.638 35.6581C73.6304 35.101 73.8368 34.9311 74.3125 34.9618C75.0247 35.0091 75.737 35.037 76.4492 35.0231C78.591 34.9813 80.1111 33.8505 81.0423 31.6363Z" fill="#6C5044"/>
<path id="Vector_3" d="M98.7478 21.7213C98.7478 18.2928 98.7428 14.8615 98.7579 11.433C98.7604 11.1016 98.5591 10.5891 98.9693 10.4666C99.3846 10.344 99.8678 10.2716 100.253 10.7228C100.759 11.3132 101.124 12.3995 101.765 12.4022C102.395 12.405 103.001 11.5444 103.663 11.1601C109.761 7.60902 117.05 12.3632 117.173 20.0029C117.239 24.0803 117.171 28.1605 117.201 32.238C117.206 32.9788 117.085 33.3381 116.327 33.2629C114.883 33.1181 112.988 33.9202 112.117 32.9315C111.417 32.1349 111.911 30.0377 111.903 28.5143C111.89 25.7792 111.916 23.0442 111.893 20.312C111.87 17.7274 110.209 15.8475 107.992 15.8419C105.749 15.8363 104.048 17.6717 104.023 20.2368C103.988 24.175 103.98 28.116 104.033 32.0542C104.046 33.0401 103.791 33.3548 102.916 33.2629C101.554 33.1181 99.7244 33.8979 98.9517 32.9593C98.2772 32.1405 98.7529 30.1463 98.7453 28.673C98.7403 26.3558 98.7478 24.0385 98.7478 21.7213Z" fill="#6C5044"/>
<path id="Vector_4" d="M15.468 18.1368C13.7968 15.0063 11.7557 13.792 9.47052 14.441C7.12993 15.1066 5.5343 17.3848 5.39336 20.273C5.24739 23.2336 6.50325 25.4812 8.81113 26.392C11.2524 27.3556 13.3765 26.4226 15.4151 23.4175C16.5326 24.6791 17.6148 25.9547 18.7524 27.1662C19.3589 27.8096 18.8228 28.155 18.5384 28.5365C15.395 32.7672 9.62404 33.8144 5.20712 30.9707C0.933651 28.219 -0.974058 22.6293 0.485667 17.1342C1.93281 11.6837 6.32205 8.10477 11.27 8.4557C14.3656 8.67572 16.8371 10.266 18.7247 12.9871C19.1248 13.5609 19.1374 13.9703 18.6316 14.5106C17.5519 15.6636 16.5401 16.8974 15.468 18.1368Z" fill="#6C5044"/>
<path id="Vector_5" d="M64.6482 4.76825C64.6457 3.29213 65.1037 1.30075 64.4267 0.473567C63.6516 -0.476165 61.8169 0.32874 60.4553 0.158846C59.4435 0.033515 59.295 0.512559 59.3127 1.49571C59.368 4.45631 59.3328 7.42248 59.3328 10.5697C57.5182 9.00444 56.2825 8.48084 54.4176 8.42792C48.5887 8.26081 43.9226 13.0485 43.5703 19.7523C43.3211 24.5093 44.957 28.4029 48.6969 30.9123C52.228 33.2797 55.837 33.1488 59.3655 30.7118C60.0627 30.23 60.6818 29.0686 61.3764 29.3053C62.0182 29.5253 62.4335 30.6561 62.884 31.4304C63.2237 32.0097 63.6491 32.2659 64.2405 32.1267C65.0534 31.9373 64.6281 31.1992 64.6281 30.7592C64.6583 22.0946 64.6558 13.43 64.6482 4.76825ZM54.0098 26.7513C51.0854 26.6789 48.8555 23.8437 48.9134 20.2675C48.9713 16.7304 51.1206 14.2656 54.1155 14.299C56.9821 14.3324 59.4008 17.3069 59.3253 20.7104C59.2548 23.9383 56.7229 26.8182 54.0098 26.7513Z" fill="#6C5044"/>
<path id="Vector_6" d="M31.2306 8.42225C25.2784 8.41668 20.6526 13.6806 20.63 20.4791C20.6073 27.1913 25.3439 32.6223 31.2104 32.6056C37.1324 32.5889 41.7406 27.2665 41.728 20.4624C41.7154 13.4689 37.3186 8.42503 31.2306 8.42225ZM31.1802 26.754C28.2709 26.7262 26.0209 24.0107 26.0133 20.5125C26.0058 16.9197 28.14 14.3295 31.1349 14.3017C34.1978 14.2738 36.4176 16.864 36.4252 20.4847C36.4353 24.0747 34.1702 26.7819 31.1802 26.754Z" fill="#6C5044"/>
<path id="Vector_7" d="M130.165 9.55584C124.275 9.62825 119.702 15.0704 119.828 21.8578C119.952 28.5783 124.66 33.8172 130.484 33.7141C136.411 33.6083 141.004 28.2135 140.914 21.4651C140.816 14.4243 136.351 9.47786 130.165 9.55584ZM130.333 27.8709C127.421 27.8291 125.171 25.1025 125.174 21.6183C125.176 18.031 127.318 15.4492 130.316 15.4241C133.366 15.3963 135.591 18.0087 135.596 21.6211C135.601 25.2083 133.323 27.9127 130.333 27.8709Z" fill="#6C5044"/>
</g>
<defs>
<clipPath id="clip0_2659_1698">
<rect width="170" height="41" fill="white"/>
</clipPath>
</defs>
</svg>
