<svg width="47" height="25" viewBox="0 0 47 25" fill="none" xmlns="http://www.w3.org/2000/svg">
<path d="M21.8903 4.61571C22.07 4.47691 22.3103 4.36343 22.5908 4.28503C22.8712 4.20664 23.1832 4.16567 23.5 4.16567C23.8168 4.16567 24.1289 4.20664 24.4093 4.28503C24.6897 4.36343 24.9301 4.47691 25.1098 4.61571L42.7348 18.1574C42.9388 18.3136 43.0584 18.4965 43.0807 18.6863C43.103 18.8761 43.027 19.0656 42.8611 19.234C42.6952 19.4025 42.4456 19.5436 42.1395 19.6419C41.8335 19.7402 41.4826 19.792 41.125 19.7917H5.87504C5.51832 19.791 5.16875 19.7385 4.86392 19.6399C4.55909 19.5414 4.31054 19.4005 4.14499 19.2324C3.97945 19.0643 3.90317 18.8754 3.92437 18.686C3.94556 18.4966 4.06343 18.3138 4.26529 18.1574L21.8903 4.61571Z" fill="black"/>
</svg>
