<svg width="101" height="21" viewBox="0 0 101 21" fill="none" xmlns="http://www.w3.org/2000/svg">
<g clip-path="url(#clip0_2520_489)">
<path d="M100.978 9.71733C100.9 10.8332 101.135 12.2139 100.868 13.5747C100.246 16.7644 96.453 18.2589 93.6284 16.4299C93.289 16.2107 93.0812 16.1381 92.6909 16.3986C91.2031 17.3921 89.5853 17.5074 87.9599 16.7502C86.3316 15.9915 85.4075 14.692 85.3552 12.9711C85.2834 10.5799 85.3402 8.18579 85.3223 5.79453C85.3193 5.40738 85.4644 5.31059 85.8412 5.3234C86.5125 5.3476 87.1884 5.36183 87.8583 5.31913C88.3592 5.28781 88.4773 5.4515 88.4713 5.90983C88.4474 8.13597 88.4489 10.3635 88.4653 12.5897C88.4743 13.8636 89.6316 14.6251 90.7232 14.0885C91.3317 13.7896 91.5934 13.3014 91.5889 12.6367C91.571 10.4105 91.5964 8.18294 91.571 5.9568C91.565 5.48282 91.6562 5.275 92.2094 5.31771C92.8524 5.36752 93.5058 5.36041 94.1503 5.31913C94.6243 5.28781 94.729 5.44296 94.7245 5.87282C94.702 8.07619 94.7125 10.2796 94.7155 12.4815C94.717 13.5533 95.354 14.2678 96.2885 14.2579C97.232 14.2479 97.8436 13.549 97.8451 12.4616C97.8481 10.3052 97.872 8.1502 97.8286 5.99523C97.8167 5.40595 98.023 5.2807 98.5777 5.31913C99.1968 5.36183 99.8233 5.35329 100.444 5.32055C100.873 5.29778 100.996 5.433 100.987 5.83723C100.961 7.04709 100.978 8.25553 100.978 9.71733Z" fill="#ECE8F0"/>
<path d="M48.1487 16.1679C47.9887 16.0711 47.8691 16.1878 47.736 16.2391C44.6483 17.402 41.2332 15.5331 40.7562 12.3789C40.4496 10.3549 40.6665 8.31094 40.6276 6.27695C40.5992 4.74683 40.6216 4.74541 42.2395 4.74541C43.7527 4.74541 43.7512 4.74541 43.7527 6.15312C43.7542 7.90528 43.7272 9.65887 43.7676 11.411C43.7975 12.6992 44.6394 13.5575 45.8789 13.6799C47.0033 13.7923 48.1128 12.9611 48.3924 11.7754C48.4627 11.4779 48.4881 11.1662 48.4896 10.8616C48.4986 9.01408 48.5106 7.16655 48.4822 5.31902C48.4747 4.8607 48.5928 4.6899 49.0907 4.73687C49.9236 4.81373 51.045 4.40095 51.516 4.90055C51.9287 5.33895 51.6401 6.38513 51.6416 7.16228C51.6476 9.6731 51.6491 12.1839 51.6431 14.6947C51.6327 18.6417 48.2354 21.4287 44.1235 20.885C43.8409 20.8479 43.7437 20.7668 43.7482 20.4978C43.7631 19.7406 43.7616 18.9819 43.7497 18.2233C43.7452 17.9386 43.8678 17.8518 44.1504 17.8674C44.5736 17.8916 44.9967 17.9059 45.4199 17.8987C46.6923 17.8774 47.5955 17.2995 48.1487 16.1679Z" fill="#ECE8F0"/>
<path d="M58.6678 11.1008C58.6678 9.34863 58.6648 7.59504 58.6738 5.84288C58.6753 5.6735 58.5557 5.4116 58.7994 5.34897C59.0461 5.28634 59.3332 5.24934 59.562 5.47992C59.8625 5.78167 60.0793 6.33679 60.4606 6.33821C60.8344 6.33963 61.1948 5.89981 61.5881 5.70339C65.2111 3.8886 69.5413 6.31828 69.6146 10.2226C69.6535 12.3064 69.6131 14.3916 69.631 16.4754C69.634 16.854 69.5622 17.0377 69.1122 16.9992C68.2539 16.9252 67.128 17.3351 66.6106 16.8298C66.1949 16.4228 66.488 15.351 66.4835 14.5724C66.476 13.1746 66.491 11.7769 66.4775 10.3806C66.4641 9.05969 65.4772 8.09891 64.1599 8.09607C62.8276 8.09322 61.8168 9.03122 61.8019 10.3421C61.7809 12.3548 61.7765 14.3688 61.8079 16.3815C61.8153 16.8853 61.6643 17.0462 61.144 16.9992C60.335 16.9252 59.248 17.3237 58.7889 16.8441C58.3882 16.4256 58.6708 15.4065 58.6663 14.6535C58.6633 13.4693 58.6678 12.285 58.6678 11.1008Z" fill="#ECE8F0"/>
<path d="M9.18982 9.26905C8.19697 7.66919 6.98432 7.0486 5.62663 7.38025C4.23604 7.72043 3.28805 8.88474 3.20432 10.3608C3.11759 11.8738 3.86373 13.0225 5.23487 13.4879C6.68527 13.9804 7.94727 13.5036 9.15842 11.9678C9.82232 12.6125 10.4653 13.2644 11.1411 13.8836C11.5015 14.2124 11.183 14.3889 11.014 14.5839C9.14646 16.746 5.71784 17.2812 3.09367 15.8279C0.554725 14.4216 -0.578678 11.5649 0.28857 8.75664C1.14834 5.97111 3.75607 4.14209 6.69574 4.32143C8.5349 4.43388 10.0032 5.24662 11.1247 6.63725C11.3624 6.93046 11.3699 7.1397 11.0694 7.41583C10.4279 8.0051 9.8268 8.63565 9.18982 9.26905Z" fill="#ECE8F0"/>
<path d="M38.4086 2.43678C38.4071 1.68239 38.6793 0.664686 38.277 0.241947C37.8165 -0.243421 36.7265 0.167932 35.9175 0.0811064C35.3164 0.0170549 35.2282 0.261874 35.2387 0.764322C35.2716 2.27736 35.2506 3.79324 35.2506 5.40165C34.1726 4.60172 33.4384 4.33412 32.3304 4.30708C28.8674 4.22168 26.0952 6.66844 25.8859 10.0945C25.7378 12.5256 26.7097 14.5155 28.9317 15.7979C31.0295 17.0078 33.1737 16.9409 35.2701 15.6954C35.6843 15.4492 36.0521 14.8556 36.4648 14.9766C36.8461 15.0891 37.0928 15.667 37.3604 16.0627C37.5623 16.3587 37.815 16.4897 38.1664 16.4185C38.6494 16.3217 38.3967 15.9445 38.3967 15.7196C38.4146 11.2915 38.4131 6.86345 38.4086 2.43678ZM32.0882 13.6714C30.3507 13.6344 29.0259 12.1854 29.0603 10.3578C29.0947 8.55013 30.3716 7.29045 32.151 7.30754C33.8541 7.32462 35.291 8.84477 35.2462 10.5841C35.2043 12.2338 33.7001 13.7056 32.0882 13.6714Z" fill="#ECE8F0"/>
<path d="M18.5547 4.3042C15.0184 4.30135 12.2701 6.99152 12.2566 10.466C12.2432 13.8963 15.0573 16.6718 18.5427 16.6633C22.061 16.6547 24.7988 13.9347 24.7914 10.4574C24.7839 6.88334 22.1717 4.30562 18.5547 4.3042ZM18.5247 13.6728C16.7962 13.6586 15.4595 12.2708 15.455 10.483C15.4505 8.64689 16.7185 7.32316 18.4978 7.30893C20.3176 7.29469 21.6364 8.61842 21.6409 10.4688C21.6468 12.3035 20.3011 13.687 18.5247 13.6728Z" fill="#ECE8F0"/>
<path d="M77.3331 4.88352C73.8342 4.92053 71.1173 7.70179 71.1921 11.1705C71.2653 14.6051 74.063 17.2825 77.523 17.2298C81.0443 17.1757 83.7731 14.4186 83.7193 10.9698C83.661 7.37156 81.0084 4.84367 77.3331 4.88352ZM77.4333 14.2436C75.7032 14.2222 74.3665 12.8288 74.368 11.0481C74.3695 9.21482 75.6419 7.89536 77.4228 7.88255C79.235 7.86832 80.5568 9.20344 80.5598 11.0495C80.5628 12.8828 79.2096 14.2649 77.4333 14.2436Z" fill="#ECE8F0"/>
</g>
<defs>
<clipPath id="clip0_2520_489">
<rect width="101" height="20.9534" fill="white"/>
</clipPath>
</defs>
</svg>
