<svg width="37" height="37" viewBox="0 0 37 37" fill="none" xmlns="http://www.w3.org/2000/svg">
<g id="material-symbols:home-rounded">
<path id="Vector" d="M6.16675 29.2918V15.4168C6.16675 14.9286 6.27621 14.4661 6.49512 14.0293C6.71404 13.5925 7.01569 13.2328 7.40008 12.9502L16.6501 6.01266C17.1897 5.60155 17.8063 5.396 18.5001 5.396C19.1938 5.396 19.8105 5.60155 20.3501 6.01266L29.6001 12.9502C29.9855 13.2328 30.2877 13.5925 30.5066 14.0293C30.7255 14.4661 30.8344 14.9286 30.8334 15.4168V29.2918C30.8334 30.1397 30.5312 30.8659 29.9269 31.4702C29.3226 32.0745 28.597 32.3762 27.7501 32.3752H23.1251C22.6883 32.3752 22.3224 32.2272 22.0274 31.9312C21.7324 31.6352 21.5844 31.2693 21.5834 30.8335V23.1252C21.5834 22.6884 21.4354 22.3225 21.1394 22.0275C20.8434 21.7325 20.4775 21.5845 20.0417 21.5835H16.9584C16.5216 21.5835 16.1557 21.7315 15.8607 22.0275C15.5658 22.3235 15.4178 22.6894 15.4167 23.1252V30.8335C15.4167 31.2703 15.2687 31.6367 14.9727 31.9327C14.6767 32.2287 14.3109 32.3762 13.8751 32.3752H9.25008C8.40216 32.3752 7.67655 32.0735 7.07325 31.4702C6.46994 30.8669 6.16778 30.1408 6.16675 29.2918Z" fill="#A39FA6"/>
</g>
</svg>
