<svg width="35" height="35" viewBox="0 0 35 35" fill="none" xmlns="http://www.w3.org/2000/svg">
<g id="hugeicons:ai-game">
<g id="Group">
<path id="Vector" d="M8.75292 10.9375C7.47542 11.146 6.53626 11.5281 5.77355 12.231C4.10376 13.771 3.87042 16.3173 3.40521 21.4083L2.92834 26.6102C2.74751 29.174 4.75126 31.3542 7.29021 31.3542H8.37959C9.25753 31.3511 10.1142 31.0839 10.8383 30.5874C11.5624 30.0909 12.1203 29.388 12.4396 28.5702L13.5217 25.83C13.8775 24.9317 14.0554 24.481 14.4258 24.2273C14.7963 23.9735 15.2746 23.9735 16.2313 23.9735H18.7688C19.7254 23.9735 20.2038 23.9735 20.5742 24.2273C20.9446 24.481 21.1225 24.9317 21.4783 25.8315L22.5604 28.5702C22.8797 29.388 23.4376 30.0909 24.1617 30.5874C24.8858 31.0839 25.7425 31.3511 26.6204 31.3542H27.7098C30.2473 31.3542 32.2525 29.174 32.0717 26.6102L31.6006 21.4156C31.1369 16.3217 30.905 13.774 29.2352 12.2325C28.4725 11.5281 27.5319 11.146 26.2529 10.9375M24.7917 18.2292H24.8048M10.2083 18.2292H10.2215" stroke="#0095FF" stroke-width="3" stroke-linecap="round" stroke-linejoin="round"/>
<path id="Vector_2" d="M17.497 3.646L17.8732 4.66245C18.3662 5.99537 18.6126 6.66183 19.0982 7.14745C19.5853 7.63454 20.2518 7.881 21.5847 8.37391L22.6012 8.75016L21.5847 9.12641C20.2518 9.61933 19.5853 9.86579 19.0997 10.3514C18.6126 10.8385 18.3662 11.505 17.8732 12.8379L17.497 13.8543L17.1207 12.8379C16.6278 11.505 16.3814 10.8385 15.8957 10.3529C15.4087 9.86579 14.7437 9.61933 13.4093 9.12641L12.3928 8.75016L13.4093 8.37391C14.7422 7.881 15.4087 7.63454 15.8943 7.14891C16.3814 6.66183 16.6278 5.99537 17.1207 4.66245L17.497 3.646Z" stroke="#0095FF" stroke-width="3" stroke-linecap="round" stroke-linejoin="round"/>
</g>
</g>
</svg>
