<svg width="86" height="85" viewBox="0 0 86 85" fill="none" xmlns="http://www.w3.org/2000/svg">
<g id="Group">
<path id="Vector" d="M83.8542 47.2916V25.7291C83.8542 19.3749 81.5275 13.281 77.3861 8.78799C73.2447 4.29493 67.6277 1.77075 61.7708 1.77075H24.2291C18.3723 1.77075 12.7553 4.29493 8.61387 8.78799C4.47244 13.281 2.14581 19.3749 2.14581 25.7291V59.2708C2.14581 62.417 2.71702 65.5325 3.82681 68.4392C4.9366 71.346 6.56324 73.9871 8.61387 76.2119C12.7553 80.7049 18.3723 83.2291 24.2291 83.2291H51.8775" stroke="black" stroke-width="3" stroke-linecap="round" stroke-linejoin="round"/>
<path id="Vector_2" d="M3.29413 66.4583L15.3958 51.125C16.9851 49.4125 19.0709 48.3483 21.3003 48.1126C23.5297 47.8768 25.7658 48.4839 27.63 49.8312C29.4942 51.1785 31.7302 51.7857 33.9596 51.5499C36.189 51.3141 38.2748 50.25 39.8641 48.5375L50.155 37.3729C53.1119 34.154 57.0268 32.1797 61.2012 31.8023C65.3756 31.4249 69.5377 32.669 72.945 35.3125L83.8541 44.4646M25.3775 33.7312C26.3403 33.7249 27.2925 33.513 28.1798 33.1074C29.0671 32.7019 29.8721 32.1107 30.5488 31.3676C31.2255 30.6246 31.7607 29.7442 32.1238 28.7767C32.4869 27.8093 32.6708 26.7737 32.665 25.7291C32.6592 24.6846 32.4638 23.6515 32.09 22.6889C31.7162 21.7262 31.1712 20.8529 30.4863 20.1187C29.8014 19.3846 28.9899 18.804 28.0982 18.41C27.2065 18.0161 26.2519 17.8166 25.2891 17.8229C23.3446 17.8356 21.4845 18.6858 20.1178 20.1865C18.7511 21.6872 17.9899 23.7154 18.0016 25.825C18.0133 27.9346 18.797 29.9527 20.1803 31.4354C21.5635 32.9181 23.433 33.7439 25.3775 33.7312Z" stroke="black" stroke-width="3" stroke-linecap="round" stroke-linejoin="round"/>
<path id="Vector_3" d="M72.6226 56.875V80.8333" stroke="black" stroke-width="3" stroke-miterlimit="10" stroke-linecap="round"/>
<path id="Vector_4" d="M82.75 66.9613L74.0624 57.5361C73.8736 57.3303 73.6492 57.1671 73.4021 57.0557C73.155 56.9443 72.8901 56.887 72.6225 56.887C72.355 56.887 72.09 56.9443 71.8429 57.0557C71.5958 57.1671 71.3715 57.3303 71.1827 57.5361L62.4951 66.9613" stroke="black" stroke-width="3" stroke-linecap="round" stroke-linejoin="round"/>
</g>
</svg>
