<svg width="77" height="77" viewBox="0 0 77 77" fill="none" xmlns="http://www.w3.org/2000/svg">
<g id="Group">
<path id="Vector" d="M63.75 2V13.25M63.75 13.25V24.5M63.75 13.25H75M63.75 13.25H52.5" stroke="#454347" stroke-width="4" stroke-linecap="round" stroke-linejoin="round"/>
<path id="Vector_2" fill-rule="evenodd" clip-rule="evenodd" d="M41.25 2H11.25C8.26631 2 5.40483 3.18526 3.29505 5.29505C1.18526 7.40483 0 10.2663 0 13.25V52.625C0 52.95 0.0400002 53.2625 0.12 53.5625C0.0406215 53.8687 0.000301109 54.1837 0 54.5V65.75C0 68.7337 1.18526 71.5952 3.29505 73.705C5.40483 75.8147 8.26631 77 11.25 77H63.75C66.7337 77 69.5952 75.8147 71.705 73.705C73.8147 71.5952 75 68.7337 75 65.75V39.5C74.9997 39.1837 74.9594 38.8687 74.88 38.5625C74.9594 38.2563 74.9997 37.9413 75 37.625V35.75H67.5V35.81C51.3862 36.3312 39.75 40.2125 31.575 45.6462C34.6725 46.745 38.1375 48.3088 41.535 50.3563C46.7812 53.5063 52.1138 57.9313 55.7025 63.7925C55.9596 64.2126 56.1314 64.6791 56.2081 65.1656C56.2849 65.6521 56.265 66.1489 56.1498 66.6277C56.0345 67.1065 55.8261 67.5579 55.5364 67.9562C55.2466 68.3544 54.8813 68.6917 54.4613 68.9488C54.0412 69.2058 53.5746 69.3776 53.0881 69.4544C52.6017 69.5311 52.1049 69.5113 51.6261 69.396C51.1473 69.2808 50.6958 69.0723 50.2976 68.7826C49.8993 68.4929 49.5621 68.1276 49.305 67.7075C46.545 63.1962 42.2625 59.54 37.6725 56.7837C33.09 54.0312 28.4287 52.3138 25.1962 51.5638C20.6425 50.5251 15.9801 50.0391 11.31 50.1163H11.2275C9.9225 50.1362 8.68 50.1925 7.5 50.285V13.25C7.5 12.2554 7.89509 11.3016 8.59835 10.5984C9.30161 9.89509 10.2554 9.5 11.25 9.5H41.25V2ZM24.375 17C22.3314 17.02 20.3417 17.658 18.6675 18.83C16.53 20.3675 15 22.9025 15 26.375C15 29.8475 16.53 32.3787 18.6675 33.9162C20.3381 35.0961 22.3299 35.736 24.375 35.75C25.9125 35.75 28.1363 35.3187 30.0825 33.9162C32.22 32.3787 33.75 29.8475 33.75 26.375C33.75 22.9025 32.22 20.3713 30.0825 18.83C28.4115 17.6515 26.4197 17.0129 24.375 17Z" fill="#454347"/>
</g>
</svg>
