<svg width="20" height="18" viewBox="0 0 20 18" fill="none" xmlns="http://www.w3.org/2000/svg">
<g id="location_on">
<path id="icon" d="M10.375 16.0588C10.1915 16.0588 10.0341 16.0118 9.90297 15.9176C9.77184 15.8235 9.6735 15.7 9.60793 15.547C9.35879 14.8882 9.04409 14.2706 8.66382 13.6941C8.29666 13.1176 7.77871 12.4412 7.10996 11.6647C6.44121 10.8882 5.89703 10.147 5.47742 9.44116C5.07092 8.73528 4.86768 7.88234 4.86768 6.88234C4.86768 5.50587 5.39874 4.34116 6.46087 3.38822C7.53612 2.42351 8.84084 1.94116 10.375 1.94116C11.9092 1.94116 13.2074 2.42351 14.2695 3.38822C15.3448 4.34116 15.8824 5.50587 15.8824 6.88234C15.8824 7.95293 15.6529 8.84704 15.194 9.56469C14.7481 10.2706 14.2302 10.9706 13.6401 11.6647C12.932 12.5118 12.3944 13.2176 12.0272 13.7823C11.6732 14.3353 11.3782 14.9235 11.1421 15.547C11.0766 15.7118 10.9717 15.8412 10.8274 15.9353C10.6963 16.0176 10.5455 16.0588 10.375 16.0588ZM10.375 8.64705C10.9258 8.64705 11.3913 8.47646 11.7715 8.13528C12.1518 7.7941 12.3419 7.37646 12.3419 6.88234C12.3419 6.38822 12.1518 5.97057 11.7715 5.6294C11.3913 5.28822 10.9258 5.11763 10.375 5.11763C9.82429 5.11763 9.35879 5.28822 8.97852 5.6294C8.59825 5.97057 8.40812 6.38822 8.40812 6.88234C8.40812 7.37646 8.59825 7.7941 8.97852 8.13528C9.35879 8.47646 9.82429 8.64705 10.375 8.64705Z" fill="#0095FF"/>
</g>
</svg>
