<svg width="29" height="29" viewBox="0 0 29 29" fill="none" xmlns="http://www.w3.org/2000/svg">
<g id="material-symbols:person-rounded">
<path id="Vector" d="M14.5 14.4999C13.1709 14.4999 12.033 14.0267 11.0865 13.0801C10.14 12.1336 9.66671 10.9958 9.66671 9.66658C9.66671 8.33742 10.14 7.19957 11.0865 6.25304C12.033 5.30652 13.1709 4.83325 14.5 4.83325C15.8292 4.83325 16.9671 5.30652 17.9136 6.25304C18.8601 7.19957 19.3334 8.33742 19.3334 9.66658C19.3334 10.9958 18.8601 12.1336 17.9136 13.0801C16.9671 14.0267 15.8292 14.4999 14.5 14.4999ZM4.83337 21.7499V20.7833C4.83337 20.0985 5.00979 19.4694 5.36262 18.8958C5.71546 18.3223 6.18348 17.8841 6.76671 17.5812C8.01532 16.9569 9.28407 16.4888 10.573 16.1771C11.8618 15.8653 13.1709 15.7091 14.5 15.7083C15.8292 15.7074 17.1382 15.8637 18.4271 16.1771C19.716 16.4904 20.9848 16.9585 22.2334 17.5812C22.8174 17.8833 23.2858 18.3215 23.6387 18.8958C23.9915 19.4702 24.1675 20.0993 24.1667 20.7833V21.7499C24.1667 22.4145 23.9303 22.9836 23.4574 23.4573C22.9846 23.931 22.4154 24.1674 21.75 24.1666H7.25004C6.58546 24.1666 6.01673 23.9302 5.54387 23.4573C5.07101 22.9844 4.83418 22.4153 4.83337 21.7499Z" fill="#666666"/>
</g>
</svg>
