<svg width="47" height="43" viewBox="0 0 47 43" fill="none" xmlns="http://www.w3.org/2000/svg">
<path d="M1.92805 42H0.445091L2.70468 35.4545H4.48806L6.74445 42H5.2615L3.62194 36.9503H3.5708L1.92805 42ZM1.83536 39.4272H5.3382V40.5075H1.83536V39.4272ZM8.91615 35.4545V42H7.53227V35.4545H8.91615ZM12.7838 35.151H18.0398V36.114H12.7838V35.151ZM11.9288 40.875H19.4708V41.838H11.9288V40.875ZM17.5538 35.151H18.7418V35.889C18.7418 36.225 18.7358 36.585 18.7238 36.969C18.7178 37.353 18.6878 37.782 18.6338 38.256C18.5798 38.73 18.4898 39.273 18.3638 39.885L17.1758 39.759C17.3678 38.913 17.4788 38.178 17.5088 37.554C17.5388 36.924 17.5538 36.369 17.5538 35.889V35.151ZM17.7698 37.158V38.067L12.6848 38.337L12.5318 37.32L17.7698 37.158ZM14.6018 38.877H15.8078V41.226H14.6018V38.877ZM25.9321 34.458H27.1291V42.819H25.9321V34.458ZM20.7211 39.84H21.4411C22.0231 39.84 22.5331 39.834 22.9711 39.822C23.4151 39.81 23.8201 39.786 24.1861 39.75C24.5581 39.714 24.9301 39.66 25.3021 39.588L25.4101 40.578C25.0321 40.65 24.6511 40.707 24.2671 40.749C23.8891 40.785 23.4721 40.809 23.0161 40.821C22.5601 40.827 22.0351 40.83 21.4411 40.83H20.7211V39.84ZM20.7211 35.196H24.7351V36.168H21.9091V40.218H20.7211V35.196ZM33.7384 39.795H34.9354V42.81H33.7384V39.795ZM30.5794 39.453H38.1214V40.425H30.5794V39.453ZM33.7294 35.961H34.7824V36.159C34.7824 36.435 34.7344 36.705 34.6384 36.969C34.5484 37.227 34.4104 37.47 34.2244 37.698C34.0384 37.92 33.8074 38.124 33.5314 38.31C33.2554 38.49 32.9374 38.643 32.5774 38.769C32.2174 38.889 31.8184 38.976 31.3804 39.03L30.9574 38.085C31.3354 38.043 31.6714 37.974 31.9654 37.878C32.2654 37.782 32.5264 37.668 32.7484 37.536C32.9704 37.404 33.1534 37.263 33.2974 37.113C33.4474 36.957 33.5554 36.798 33.6214 36.636C33.6934 36.468 33.7294 36.309 33.7294 36.159V35.961ZM33.8914 35.961H34.9354V36.159C34.9354 36.303 34.9714 36.459 35.0434 36.627C35.1214 36.789 35.2324 36.948 35.3764 37.104C35.5204 37.254 35.7034 37.398 35.9254 37.536C36.1474 37.668 36.4054 37.782 36.6994 37.878C36.9994 37.974 37.3354 38.043 37.7074 38.085L37.2934 39.03C36.8494 38.982 36.4474 38.895 36.0874 38.769C35.7334 38.637 35.4184 38.481 35.1424 38.301C34.8664 38.121 34.6354 37.917 34.4494 37.689C34.2634 37.455 34.1224 37.209 34.0264 36.951C33.9364 36.693 33.8914 36.429 33.8914 36.159V35.961ZM31.2544 35.412H37.4284V36.357H31.2544V35.412ZM33.7384 34.485H34.9354V35.736H33.7384V34.485ZM40.7217 36.096H41.7027V36.411C41.7027 36.921 41.6187 37.401 41.4507 37.851C41.2827 38.301 41.0277 38.694 40.6857 39.03C40.3437 39.366 39.9087 39.621 39.3807 39.795L38.7957 38.859C39.2457 38.715 39.6117 38.517 39.8937 38.265C40.1817 38.007 40.3917 37.719 40.5237 37.401C40.6557 37.077 40.7217 36.747 40.7217 36.411V36.096ZM40.9467 36.096H41.9187V36.411C41.9187 36.723 41.9847 37.032 42.1167 37.338C42.2547 37.638 42.4677 37.911 42.7557 38.157C43.0437 38.397 43.4097 38.583 43.8537 38.715L43.2867 39.651C42.7587 39.495 42.3207 39.258 41.9727 38.94C41.6307 38.616 41.3727 38.238 41.1987 37.806C41.0307 37.368 40.9467 36.903 40.9467 36.411V36.096ZM39.0837 35.448H43.5657V36.384H39.0837V35.448ZM40.7217 34.521H41.9187V35.799H40.7217V34.521ZM43.2957 36.888H45.2307V37.86H43.2957V36.888ZM44.6277 34.467H45.8337V40.632H44.6277V34.467ZM40.3257 41.694H46.0227V42.657H40.3257V41.694ZM40.3257 40.119H41.5227V42.324H40.3257V40.119Z" fill="#A39FA6"/>
<path d="M14.8359 9.29175C13.5584 9.50029 12.6193 9.88237 11.8566 10.5853C10.1868 12.1253 9.95343 14.6715 9.48822 19.7626L9.01135 24.9645C8.83051 27.5282 10.8343 29.7084 13.3732 29.7084H14.4626C15.3405 29.7053 16.1972 29.4381 16.9213 28.9416C17.6454 28.4451 18.2033 27.7423 18.5226 26.9245L19.6047 24.1842C19.9605 23.2859 20.1384 22.8353 20.5088 22.5815C20.8793 22.3278 21.3576 22.3278 22.3143 22.3278H24.8518C25.8084 22.3278 26.2868 22.3278 26.6572 22.5815C27.0276 22.8353 27.2055 23.2859 27.5613 24.1857L28.6434 26.9245C28.9627 27.7423 29.5206 28.4451 30.2447 28.9416C30.9688 29.4381 31.8255 29.7053 32.7034 29.7084H33.7928C36.3303 29.7084 38.3355 27.5282 38.1547 24.9645L37.6836 19.7699C37.2199 14.6759 36.988 12.1282 35.3182 10.5867C34.5555 9.88237 33.6149 9.50029 32.3359 9.29175M30.8747 16.5834H30.8878M16.2913 16.5834H16.3045" stroke="#A39FA6" stroke-width="3" stroke-linecap="round" stroke-linejoin="round"/>
<path d="M23.5801 2L23.9564 3.01646C24.4493 4.34938 24.6957 5.01583 25.1814 5.50146C25.6685 5.98854 26.3349 6.235 27.6678 6.72792L28.6843 7.10417L27.6678 7.48042C26.3349 7.97333 25.6685 8.21979 25.1828 8.70542C24.6957 9.1925 24.4493 9.85896 23.9564 11.1919L23.5801 12.2083L23.2039 11.1919C22.711 9.85896 22.4645 9.1925 21.9789 8.70688C21.4918 8.21979 20.8268 7.97333 19.4924 7.48042L18.476 7.10417L19.4924 6.72792C20.8253 6.235 21.4918 5.98854 21.9774 5.50292C22.4645 5.01583 22.711 4.34938 23.2039 3.01646L23.5801 2Z" stroke="#A39FA6" stroke-width="3" stroke-linecap="round" stroke-linejoin="round"/>
</svg>
