<svg width="44" height="41" viewBox="0 0 44 41" fill="none" xmlns="http://www.w3.org/2000/svg">
<path d="M6.84825 35.608H8.31525V36.598H6.84825V35.608ZM5.94825 32.449H7.15425V40.783H5.94825V32.449ZM0.881254 33.25H2.06925V38.434H0.881254V33.25ZM0.881254 37.759H1.59225C2.18625 37.759 2.80425 37.735 3.44625 37.687C4.08825 37.639 4.74525 37.549 5.41725 37.417L5.54325 38.389C4.84725 38.533 4.16925 38.632 3.50925 38.686C2.84925 38.734 2.21025 38.758 1.59225 38.758H0.881254V37.759ZM9.14255 33.142H13.1206V37.174H9.14255V33.142ZM11.9416 34.096H10.3216V36.229H11.9416V34.096ZM14.2636 32.467H15.4606V38.542H14.2636V32.467ZM15.1276 34.87H16.5676V35.851H15.1276V34.87ZM10.0876 39.694H15.7576V40.657H10.0876V39.694ZM10.0876 37.948H11.2936V40.18H10.0876V37.948ZM19.8698 33.016C20.3018 33.016 20.6918 33.103 21.0398 33.277C21.3878 33.451 21.6608 33.694 21.8588 34.006C22.0568 34.312 22.1558 34.666 22.1558 35.068C22.1558 35.464 22.0568 35.818 21.8588 36.13C21.6608 36.442 21.3878 36.685 21.0398 36.859C20.6918 37.033 20.3018 37.12 19.8698 37.12C19.4318 37.12 19.0388 37.033 18.6908 36.859C18.3428 36.685 18.0668 36.442 17.8628 36.13C17.6648 35.818 17.5658 35.464 17.5658 35.068C17.5658 34.666 17.6648 34.312 17.8628 34.006C18.0668 33.694 18.3428 33.451 18.6908 33.277C19.0388 33.103 19.4318 33.016 19.8698 33.016ZM19.8698 34.042C19.6538 34.042 19.4588 34.084 19.2848 34.168C19.1168 34.246 18.9818 34.363 18.8798 34.519C18.7838 34.669 18.7358 34.852 18.7358 35.068C18.7358 35.284 18.7838 35.47 18.8798 35.626C18.9818 35.782 19.1168 35.902 19.2848 35.986C19.4588 36.064 19.6538 36.103 19.8698 36.103C20.0798 36.103 20.2688 36.064 20.4368 35.986C20.6048 35.902 20.7368 35.782 20.8328 35.626C20.9348 35.47 20.9858 35.284 20.9858 35.068C20.9858 34.852 20.9348 34.669 20.8328 34.519C20.7368 34.363 20.6048 34.246 20.4368 34.168C20.2688 34.084 20.0798 34.042 19.8698 34.042ZM22.9388 32.449H24.1358V40.81H22.9388V32.449ZM17.3588 39.127L17.2238 38.155C17.7098 38.155 18.2468 38.152 18.8348 38.146C19.4288 38.134 20.0378 38.11 20.6618 38.074C21.2918 38.032 21.9008 37.969 22.4888 37.885L22.5698 38.749C21.9698 38.869 21.3608 38.956 20.7428 39.01C20.1248 39.058 19.5278 39.091 18.9518 39.109C18.3758 39.121 17.8448 39.127 17.3588 39.127ZM27.5412 36.418H35.0832V37.363H27.5412V36.418ZM30.7002 37.759H31.7262V37.912C31.7262 38.278 31.6542 38.62 31.5102 38.938C31.3722 39.25 31.1652 39.532 30.8892 39.784C30.6192 40.03 30.2832 40.237 29.8812 40.405C29.4792 40.579 29.0172 40.702 28.4952 40.774L28.0452 39.856C28.5072 39.802 28.9032 39.712 29.2332 39.586C29.5692 39.454 29.8452 39.301 30.0612 39.127C30.2832 38.947 30.4452 38.755 30.5472 38.551C30.6492 38.341 30.7002 38.128 30.7002 37.912V37.759ZM30.8892 37.759H31.9152V37.912C31.9152 38.128 31.9662 38.341 32.0682 38.551C32.1762 38.755 32.3382 38.947 32.5542 39.127C32.7702 39.301 33.0462 39.454 33.3822 39.586C33.7182 39.712 34.1172 39.802 34.5792 39.856L34.1292 40.774C33.6072 40.702 33.1452 40.579 32.7432 40.405C32.3412 40.237 32.0022 40.03 31.7262 39.784C31.4562 39.532 31.2492 39.25 31.1052 38.938C30.9612 38.62 30.8892 38.278 30.8892 37.912V37.759ZM30.7002 35.527H31.8972V36.742H30.7002V35.527ZM31.3122 32.593C31.9302 32.593 32.4642 32.659 32.9142 32.791C33.3642 32.923 33.7122 33.109 33.9582 33.349C34.2102 33.589 34.3362 33.88 34.3362 34.222C34.3362 34.558 34.2102 34.849 33.9582 35.095C33.7122 35.335 33.3642 35.521 32.9142 35.653C32.4642 35.779 31.9302 35.842 31.3122 35.842C30.7062 35.842 30.1752 35.779 29.7192 35.653C29.2632 35.521 28.9122 35.335 28.6662 35.095C28.4202 34.849 28.2972 34.558 28.2972 34.222C28.2972 33.88 28.4202 33.589 28.6662 33.349C28.9122 33.109 29.2632 32.923 29.7192 32.791C30.1752 32.659 30.7062 32.593 31.3122 32.593ZM31.3122 33.511C30.9402 33.511 30.6192 33.538 30.3492 33.592C30.0792 33.646 29.8752 33.727 29.7372 33.835C29.6052 33.937 29.5392 34.066 29.5392 34.222C29.5392 34.378 29.6052 34.507 29.7372 34.609C29.8752 34.711 30.0792 34.789 30.3492 34.843C30.6192 34.897 30.9402 34.924 31.3122 34.924C31.6962 34.924 32.0202 34.897 32.2842 34.843C32.5482 34.789 32.7492 34.711 32.8872 34.609C33.0252 34.507 33.0942 34.378 33.0942 34.222C33.0942 34.066 33.0252 33.937 32.8872 33.835C32.7492 33.727 32.5482 33.646 32.2842 33.592C32.0202 33.538 31.6962 33.511 31.3122 33.511ZM37.6834 33.394H38.6644V33.916C38.6644 34.444 38.5774 34.945 38.4034 35.419C38.2354 35.893 37.9774 36.31 37.6294 36.67C37.2814 37.024 36.8404 37.288 36.3064 37.462L35.7124 36.517C36.1684 36.367 36.5404 36.157 36.8284 35.887C37.1224 35.611 37.3384 35.302 37.4764 34.96C37.6144 34.612 37.6834 34.264 37.6834 33.916V33.394ZM37.9264 33.394H38.8894V33.916C38.8894 34.24 38.9554 34.555 39.0874 34.861C39.2194 35.161 39.4234 35.431 39.6994 35.671C39.9814 35.911 40.3474 36.1 40.7974 36.238L40.2214 37.174C39.6934 37.018 39.2584 36.778 38.9164 36.454C38.5804 36.124 38.3314 35.743 38.1694 35.311C38.0074 34.873 37.9264 34.408 37.9264 33.916V33.394ZM36.0184 33.016H40.5274V33.97H36.0184V33.016ZM41.1844 32.467H42.3814V37.408H41.1844V32.467ZM42.0574 34.375H43.4884V35.356H42.0574V34.375ZM39.6634 37.552C40.2454 37.552 40.7464 37.618 41.1664 37.75C41.5864 37.876 41.9104 38.059 42.1384 38.299C42.3664 38.539 42.4804 38.83 42.4804 39.172C42.4804 39.514 42.3664 39.805 42.1384 40.045C41.9104 40.291 41.5864 40.477 41.1664 40.603C40.7464 40.735 40.2454 40.801 39.6634 40.801C39.0874 40.801 38.5864 40.735 38.1604 40.603C37.7404 40.477 37.4134 40.291 37.1794 40.045C36.9514 39.805 36.8374 39.514 36.8374 39.172C36.8374 38.83 36.9514 38.539 37.1794 38.299C37.4134 38.059 37.7404 37.876 38.1604 37.75C38.5864 37.618 39.0874 37.552 39.6634 37.552ZM39.6634 38.488C39.3094 38.488 39.0124 38.512 38.7724 38.56C38.5324 38.608 38.3494 38.683 38.2234 38.785C38.0974 38.887 38.0344 39.016 38.0344 39.172C38.0344 39.334 38.0974 39.466 38.2234 39.568C38.3494 39.67 38.5324 39.748 38.7724 39.802C39.0124 39.85 39.3094 39.874 39.6634 39.874C40.0174 39.874 40.3144 39.85 40.5544 39.802C40.8004 39.748 40.9834 39.67 41.1034 39.568C41.2294 39.466 41.2924 39.334 41.2924 39.172C41.2924 39.016 41.2294 38.887 41.1034 38.785C40.9834 38.683 40.8004 38.608 40.5544 38.56C40.3144 38.512 40.0174 38.488 39.6634 38.488Z" fill="#A39FA6"/>
<path fill-rule="evenodd" clip-rule="evenodd" d="M11.913 0H16.673V1.00513C16.6836 1.02638 16.7282 1.1305 16.8897 1.3175C17.1086 1.5725 17.4529 1.87638 17.8949 2.1675C18.7916 2.75613 19.9179 3.1875 20.923 3.1875C21.9281 3.1875 23.0565 2.75613 23.9511 2.1675C24.3931 1.87638 24.7374 1.5725 24.9584 1.3175C25.1177 1.1305 25.1624 1.02638 25.173 1.00513V0H29.933L34.846 6.14125L32.2174 15.3361L28.3605 13.4066V25.5H13.4855V13.4066L9.62862 15.3361L7 6.13912L11.913 0Z" fill="#A39FA6"/>
</svg>
