<svg width="25" height="39" viewBox="0 0 25 39" fill="none" xmlns="http://www.w3.org/2000/svg">
<path d="M9.60235 36.272H15.3624V38.711H9.60235V36.272ZM14.1924 37.154H10.7724V37.82H14.1924V37.154ZM9.08035 31.043H15.8754V31.952H9.08035V31.043ZM12.4914 32.15C13.3914 32.15 14.0814 32.252 14.5614 32.456C15.0414 32.654 15.2814 32.948 15.2814 33.338C15.2814 33.734 15.0414 34.034 14.5614 34.238C14.0814 34.436 13.3914 34.535 12.4914 34.535C11.6034 34.535 10.9164 34.436 10.4304 34.238C9.94435 34.034 9.70135 33.734 9.70135 33.338C9.70135 32.948 9.94435 32.654 10.4304 32.456C10.9164 32.252 11.6034 32.15 12.4914 32.15ZM12.4914 32.96C11.9814 32.96 11.6034 32.99 11.3574 33.05C11.1114 33.11 10.9884 33.206 10.9884 33.338C10.9884 33.476 11.1114 33.575 11.3574 33.635C11.6034 33.695 11.9814 33.725 12.4914 33.725C13.0134 33.725 13.3944 33.695 13.6344 33.635C13.8804 33.575 14.0034 33.476 14.0034 33.338C14.0034 33.206 13.8804 33.11 13.6344 33.05C13.3944 32.99 13.0134 32.96 12.4914 32.96ZM11.8974 30.404H13.0854V31.691H11.8974V30.404ZM8.72035 34.922H16.2624V35.849H8.72035V34.922ZM11.8974 34.247H13.0854V35.408H11.8974V34.247Z" fill="#A39FA6"/>
<path d="M0 23.8958V10.0208C0 9.53264 0.109458 9.07014 0.328375 8.63333C0.547291 8.19653 0.848945 7.8368 1.23333 7.55417L10.4833 0.616667C11.0229 0.205556 11.6396 0 12.3333 0C13.0271 0 13.6437 0.205556 14.1833 0.616667L23.4333 7.55417C23.8188 7.8368 24.1209 8.19653 24.3398 8.63333C24.5587 9.07014 24.6677 9.53264 24.6667 10.0208V23.8958C24.6667 24.7437 24.3645 25.4699 23.7602 26.0742C23.1558 26.6785 22.4302 26.9802 21.5833 26.9792H16.9583C16.5215 26.9792 16.1556 26.8312 15.8607 26.5352C15.5657 26.2392 15.4177 25.8733 15.4167 25.4375V17.7292C15.4167 17.2924 15.2687 16.9265 14.9727 16.6315C14.6767 16.3365 14.3108 16.1885 13.875 16.1875H10.7917C10.3549 16.1875 9.98897 16.3355 9.694 16.6315C9.39903 16.9275 9.25103 17.2934 9.25 17.7292V25.4375C9.25 25.8743 9.102 26.2407 8.806 26.5367C8.51 26.8327 8.14411 26.9802 7.70833 26.9792H3.08333C2.23542 26.9792 1.50981 26.6775 0.9065 26.0742C0.303194 25.4709 0.00102778 24.7448 0 23.8958Z" fill="#A39FA6"/>
</svg>
