<svg width="29" height="29" viewBox="0 0 29 29" fill="none" xmlns="http://www.w3.org/2000/svg">
<g id="material-symbols:person-rounded">
<path id="Vector" d="M14.4999 14.4999C13.1708 14.4999 12.0329 14.0267 11.0864 13.0801C10.1398 12.1336 9.66658 10.9958 9.66658 9.66658C9.66658 8.33742 10.1398 7.19957 11.0864 6.25304C12.0329 5.30652 13.1708 4.83325 14.4999 4.83325C15.8291 4.83325 16.9669 5.30652 17.9135 6.25304C18.86 7.19957 19.3333 8.33742 19.3333 9.66658C19.3333 10.9958 18.86 12.1336 17.9135 13.0801C16.9669 14.0267 15.8291 14.4999 14.4999 14.4999ZM4.83325 21.7499V20.7833C4.83325 20.0985 5.00967 19.4694 5.3625 18.8958C5.71534 18.3223 6.18336 17.8841 6.76658 17.5812C8.0152 16.9569 9.28395 16.4888 10.5728 16.1771C11.8617 15.8653 13.1708 15.7091 14.4999 15.7083C15.8291 15.7074 17.1381 15.8637 18.427 16.1771C19.7159 16.4904 20.9846 16.9585 22.2332 17.5812C22.8173 17.8833 23.2857 18.3215 23.6385 18.8958C23.9914 19.4702 24.1674 20.0993 24.1666 20.7833V21.7499C24.1666 22.4145 23.9302 22.9836 23.4573 23.4573C22.9844 23.931 22.4153 24.1674 21.7499 24.1666H7.24992C6.58534 24.1666 6.01661 23.9302 5.54375 23.4573C5.07089 22.9844 4.83406 22.4153 4.83325 21.7499Z" fill="#0095FF"/>
</g>
</svg>
