<svg width="27" height="27" viewBox="0 0 27 27" fill="none" xmlns="http://www.w3.org/2000/svg">
<g id="Group 273">
<path id="Vector" d="M7.19995 19.4573L13.172 19.4372L26.207 6.66638C26.7185 6.16037 27 5.48836 27 4.77351C27 4.05866 26.7185 3.38665 26.207 2.88064L24.0607 0.757517C23.0376 -0.254514 21.2526 -0.249159 20.2376 0.753501L7.19995 13.527V19.4573ZM22.1471 2.65039L24.2975 4.7695L22.1363 6.88726L19.99 4.76548L22.1471 2.65039ZM9.90654 14.6435L18.0669 6.64764L20.2132 8.77076L12.0542 16.7639L9.90654 16.7706V14.6435Z" fill="#CDCAD0"/>
<path id="Vector_2" d="M2.70001 26.1926H21.6001C23.0891 26.1926 24.3001 24.9992 24.3001 23.5318V11.9997L21.6001 14.6606V23.5318H6.96333C6.92823 23.5318 6.89178 23.5451 6.85668 23.5451C6.81213 23.5451 6.76758 23.5331 6.72168 23.5318H2.70001V4.90595H11.9435L14.6435 2.24512H2.70001C1.21095 2.24512 0 3.4385 0 4.90595V23.5318C0 24.9992 1.21095 26.1926 2.70001 26.1926Z" fill="#CDCAD0"/>
</g>
</svg>
