<svg width="109" height="25" viewBox="0 0 109 25" fill="none" xmlns="http://www.w3.org/2000/svg">
<g clip-path="url(#clip0_2308_2482)">
<path d="M108.976 11.5942C108.892 12.9256 109.145 14.5729 108.858 16.1965C108.187 20.0022 104.093 21.7854 101.044 19.6031C100.678 19.3416 100.454 19.255 100.033 19.5658C98.427 20.7512 96.681 20.8887 94.9269 19.9853C93.1696 19.0801 92.1723 17.5296 92.1159 15.4764C92.0384 12.6233 92.0997 9.76686 92.0804 6.9138C92.0771 6.45187 92.2337 6.33639 92.6403 6.35167C93.3649 6.38054 94.0942 6.39753 94.8172 6.34658C95.3578 6.30922 95.4852 6.50452 95.4788 7.05135C95.453 9.70742 95.4546 12.3652 95.4723 15.0213C95.482 16.5412 96.731 17.4498 97.909 16.8095C98.5658 16.4529 98.8482 15.8704 98.8433 15.0773C98.824 12.4212 98.8514 9.76347 98.824 7.1074C98.8175 6.54188 98.9159 6.29393 99.513 6.34488C100.207 6.40432 100.912 6.39583 101.608 6.34658C102.119 6.30922 102.232 6.49433 102.227 7.0072C102.203 9.6361 102.214 12.265 102.218 14.8922C102.219 16.171 102.907 17.0235 103.915 17.0116C104.933 16.9997 105.593 16.1659 105.595 14.8684C105.598 12.2956 105.624 9.72441 105.577 7.15325C105.564 6.45017 105.787 6.30073 106.386 6.34658C107.054 6.39753 107.73 6.38734 108.4 6.34828C108.863 6.32111 108.995 6.48244 108.985 6.96474C108.958 8.40826 108.976 9.85008 108.976 11.5942Z" fill="#6C5044" fill-opacity="0.62"/>
<path d="M51.9626 19.2907C51.7899 19.1752 51.6608 19.3145 51.5172 19.3756C48.1849 20.7631 44.4993 18.5333 43.9845 14.7699C43.6537 12.355 43.8877 9.91631 43.8457 7.48951C43.8151 5.66389 43.8393 5.66219 45.5853 5.66219C47.2183 5.66219 47.2167 5.66219 47.2183 7.34176C47.2199 9.43231 47.1909 11.5246 47.2345 13.6151C47.2667 15.152 48.1752 16.1761 49.513 16.3221C50.7265 16.4563 51.9239 15.4645 52.2256 14.0499C52.3015 13.6949 52.3289 13.323 52.3305 12.9596C52.3402 10.7553 52.3531 8.55092 52.3224 6.34658C52.3144 5.79975 52.4419 5.59596 52.9792 5.652C53.878 5.7437 55.0883 5.25121 55.5966 5.8473C56.042 6.37036 55.7306 7.61858 55.7322 8.54582C55.7386 11.5415 55.7402 14.5373 55.7338 17.533C55.7225 22.2422 52.0562 25.5674 47.6185 24.9187C47.3135 24.8745 47.2086 24.7777 47.2135 24.4568C47.2296 23.5533 47.228 22.6481 47.2151 21.743C47.2103 21.4033 47.3426 21.2997 47.6476 21.3184C48.1042 21.3473 48.5609 21.3642 49.0176 21.3558C50.3909 21.3303 51.3655 20.6408 51.9626 19.2907Z" fill="#6C5044" fill-opacity="0.62"/>
<path d="M63.3147 13.2446C63.3147 11.154 63.3114 9.06178 63.3211 6.97123C63.3227 6.76914 63.1936 6.45666 63.4567 6.38193C63.7229 6.30721 64.0328 6.26306 64.2797 6.53817C64.604 6.8982 64.838 7.56052 65.2495 7.56222C65.6529 7.56392 66.0418 7.03916 66.4662 6.8048C70.3762 4.63953 75.0494 7.53845 75.1285 12.1968C75.1705 14.683 75.1269 17.1709 75.1463 19.6572C75.1495 20.1089 75.072 20.328 74.5863 20.2821C73.6601 20.1938 72.4449 20.6829 71.8866 20.0801C71.438 19.5943 71.7543 18.3156 71.7494 17.3866C71.7414 15.7189 71.7575 14.0512 71.743 12.3853C71.7285 10.8093 70.6634 9.66296 69.2418 9.65956C67.804 9.65617 66.7131 10.7753 66.697 12.3394C66.6744 14.7407 66.6695 17.1438 66.7034 19.5451C66.7115 20.1463 66.5485 20.3382 65.987 20.2821C65.1139 20.1938 63.9408 20.6693 63.4454 20.097C63.0129 19.5977 63.3179 18.3818 63.3131 17.4834C63.3098 16.0705 63.3147 14.6575 63.3147 13.2446Z" fill="#6C5044" fill-opacity="0.62"/>
<path d="M9.91771 11.0592C8.84622 9.15034 7.53752 8.4099 6.07229 8.80559C4.57155 9.21148 3.54847 10.6006 3.45811 12.3617C3.36451 14.167 4.16974 15.5375 5.6495 16.0928C7.21478 16.6804 8.57673 16.1115 9.88382 14.2791C10.6003 15.0484 11.2942 15.8262 12.0236 16.5649C12.4125 16.9572 12.0688 17.1678 11.8864 17.4005C9.87092 19.9801 6.17072 20.6186 3.33869 18.8847C0.598645 17.2069 -0.624534 13.7985 0.311407 10.4478C1.23928 7.12432 4.05356 4.94207 7.22607 5.15605C9.21091 5.29021 10.7956 6.25991 12.0058 7.91911C12.2624 8.26895 12.2705 8.51859 11.9461 8.84805C11.2538 9.55113 10.6051 10.3035 9.91771 11.0592Z" fill="#6C5044" fill-opacity="0.62"/>
<path d="M41.4509 2.90729C41.4493 2.00721 41.743 0.79296 41.3089 0.288579C40.8119 -0.290526 39.6355 0.200269 38.7625 0.0966758C38.1138 0.0202544 38.0186 0.312354 38.0298 0.911838C38.0653 2.71708 38.0428 4.52572 38.0428 6.44475C36.8793 5.49033 36.087 5.17106 34.8912 5.13879C31.1539 5.0369 28.1621 7.9562 27.9362 12.0439C27.7765 14.9445 28.8254 17.3187 31.2233 18.8488C33.4873 20.2923 35.8013 20.2125 38.0637 18.7265C38.5107 18.4327 38.9077 17.7246 39.3531 17.8689C39.7646 18.0031 40.0308 18.6926 40.3197 19.1647C40.5375 19.5179 40.8102 19.6742 41.1895 19.5892C41.7107 19.4738 41.438 19.0237 41.438 18.7554C41.4573 13.4721 41.4557 8.18886 41.4509 2.90729ZM34.6298 16.3116C32.7547 16.2675 31.325 14.5386 31.3621 12.3581C31.3992 10.2013 32.7773 8.69833 34.6976 8.71871C36.5356 8.73909 38.0863 10.5528 38.0379 12.6281C37.9927 14.5964 36.3694 16.3524 34.6298 16.3116Z" fill="#6C5044" fill-opacity="0.62"/>
<path d="M20.0242 5.13574C16.2078 5.13235 13.2419 8.34205 13.2273 12.4875C13.2128 16.5803 16.2498 19.8919 20.0113 19.8817C23.8083 19.8715 26.763 16.6261 26.7549 12.4773C26.7469 8.21298 23.9277 5.13744 20.0242 5.13574ZM19.9919 16.3137C18.1265 16.2967 16.6839 14.6409 16.679 12.5079C16.6742 10.3171 18.0426 8.73774 19.9629 8.72076C21.9268 8.70378 23.35 10.2832 23.3549 12.4909C23.3613 14.6799 21.909 16.3306 19.9919 16.3137Z" fill="#6C5044" fill-opacity="0.62"/>
<path d="M83.4584 5.82673C79.6824 5.87088 76.7503 9.18927 76.831 13.3279C76.91 17.4258 79.9293 20.6202 83.6633 20.5574C87.4636 20.4929 90.4086 17.2033 90.3505 13.0885C90.2875 8.79527 87.4249 5.77918 83.4584 5.82673ZM83.5665 16.9944C81.6995 16.969 80.2568 15.3064 80.2585 13.1819C80.2601 10.9945 81.6333 9.42023 83.5552 9.40495C85.511 9.38797 86.9375 10.9809 86.9408 13.1836C86.944 15.3709 85.4836 17.0199 83.5665 16.9944Z" fill="#6C5044" fill-opacity="0.62"/>
</g>
<defs>
<clipPath id="clip0_2308_2482">
<rect width="109" height="25" fill="white"/>
</clipPath>
</defs>
</svg>
