<svg width="237" height="288" viewBox="0 0 237 288" fill="none" xmlns="http://www.w3.org/2000/svg">
<rect width="237" height="288" fill="white"/>
<g clip-path="url(#clip0_2673_1954)">
<path d="M166.979 71.6664C166.904 72.8913 167.129 74.4068 166.874 75.9005C166.276 79.4018 162.633 81.0423 159.921 79.0346C159.595 78.794 159.395 78.7144 159.02 79.0003C157.591 80.0908 156.037 80.2174 154.477 79.3862C152.913 78.5534 152.025 77.127 151.975 75.238C151.906 72.6132 151.961 69.9853 151.943 67.3604C151.94 66.9355 152.08 66.8292 152.442 66.8433C153.086 66.8698 153.736 66.8855 154.379 66.8386C154.86 66.8042 154.973 66.9839 154.968 67.487C154.945 69.9306 154.946 72.3757 154.962 74.8193C154.971 76.2176 156.082 77.0535 157.13 76.4645C157.715 76.1364 157.966 75.6005 157.962 74.8709C157.945 72.4273 157.969 69.9821 157.945 67.5386C157.939 67.0183 158.026 66.7902 158.558 66.837C159.175 66.8917 159.803 66.8839 160.422 66.8386C160.877 66.8042 160.977 66.9745 160.973 67.4464C160.952 69.865 160.962 72.2835 160.965 74.7006C160.966 75.877 161.578 76.6614 162.475 76.6504C163.381 76.6395 163.969 75.8724 163.97 74.6787C163.973 72.3117 163.996 69.9462 163.954 67.5807C163.943 66.9339 164.141 66.7964 164.674 66.8386C165.268 66.8855 165.87 66.8761 166.466 66.8402C166.878 66.8152 166.996 66.9636 166.987 67.4073C166.963 68.7353 166.979 70.0618 166.979 71.6664Z" fill="#6C5044" fill-opacity="0.62"/>
<path d="M116.242 78.7474C116.088 78.6411 115.973 78.7692 115.845 78.8255C112.88 80.102 109.6 78.0505 109.142 74.5883C108.848 72.3665 109.056 70.1229 109.018 67.8903C108.991 66.2107 109.013 66.2092 110.566 66.2092C112.02 66.2092 112.018 66.2092 112.02 67.7544C112.021 69.6777 111.995 71.6025 112.034 73.5258C112.063 74.9398 112.871 75.8819 114.062 76.0163C115.142 76.1397 116.207 75.2273 116.476 73.9258C116.543 73.5993 116.568 73.2571 116.569 72.9228C116.578 70.8948 116.589 68.8668 116.562 66.8388C116.555 66.3357 116.668 66.1482 117.146 66.1998C117.946 66.2841 119.023 65.8311 119.476 66.3795C119.872 66.8607 119.595 68.009 119.596 68.8621C119.602 71.6182 119.603 74.3742 119.598 77.1303C119.588 81.4628 116.325 84.522 112.376 83.9251C112.104 83.8845 112.011 83.7955 112.015 83.5002C112.03 82.669 112.028 81.8362 112.017 81.0035C112.013 80.691 112.13 80.5957 112.402 80.6129C112.808 80.6394 113.214 80.655 113.621 80.6472C114.843 80.6238 115.71 79.9895 116.242 78.7474Z" fill="#6C5044" fill-opacity="0.62"/>
<path d="M126.344 73.1851C126.344 71.2618 126.341 69.3369 126.35 67.4136C126.351 67.2277 126.237 66.9402 126.471 66.8715C126.708 66.8027 126.983 66.7621 127.203 67.0152C127.492 67.3464 127.7 67.9558 128.066 67.9573C128.425 67.9589 128.771 67.4761 129.149 67.2605C132.628 65.2685 136.787 67.9355 136.858 72.2211C136.895 74.5085 136.856 76.7974 136.873 79.0847C136.876 79.5003 136.807 79.7019 136.375 79.6597C135.551 79.5784 134.469 80.0284 133.973 79.4737C133.573 79.0269 133.855 77.8504 133.85 76.9958C133.843 75.4615 133.858 73.9272 133.845 72.3945C133.832 70.9446 132.884 69.89 131.619 69.8869C130.339 69.8838 129.369 70.9134 129.354 72.3524C129.334 74.5616 129.33 76.7724 129.36 78.9816C129.367 79.5347 129.222 79.7112 128.722 79.6597C127.945 79.5784 126.901 80.0159 126.461 79.4894C126.076 79.03 126.347 77.9114 126.343 77.0848C126.34 75.7849 126.344 74.485 126.344 73.1851Z" fill="#6C5044" fill-opacity="0.62"/>
<path d="M78.8261 71.1742C77.8726 69.418 76.708 68.7368 75.404 69.1009C74.0685 69.4743 73.1581 70.7523 73.0777 72.3725C72.9944 74.0333 73.711 75.2942 75.0278 75.8051C76.4208 76.3457 77.6328 75.8223 78.796 74.1364C79.4336 74.8442 80.0511 75.5598 80.7002 76.2394C81.0462 76.6003 80.7404 76.7941 80.5781 77.0081C78.7845 79.3814 75.4916 79.9689 72.9714 78.3737C70.533 76.83 69.4445 73.6943 70.2774 70.6117C71.1031 67.5541 73.6076 65.5464 76.4308 65.7433C78.1971 65.8667 79.6073 66.7588 80.6844 68.2853C80.9127 68.6071 80.9199 68.8368 80.6312 69.1399C80.0152 69.7867 79.4379 70.4789 78.8261 71.1742Z" fill="#6C5044" fill-opacity="0.62"/>
<path d="M106.888 63.6752C106.886 62.8472 107.147 61.7301 106.761 61.266C106.319 60.7332 105.272 61.1848 104.495 61.0895C103.918 61.0192 103.833 61.2879 103.843 61.8394C103.875 63.5002 103.855 65.1642 103.855 66.9297C102.819 66.0516 102.114 65.7579 101.05 65.7282C97.7242 65.6345 95.0618 68.3202 94.8607 72.0809C94.7186 74.7495 95.652 76.9337 97.7859 78.3414C99.8007 79.6695 101.86 79.596 103.873 78.2289C104.271 77.9586 104.624 77.3071 105.021 77.4399C105.387 77.5634 105.624 78.1977 105.881 78.632C106.075 78.957 106.317 79.1007 106.655 79.0226C107.119 78.9164 106.876 78.5024 106.876 78.2555C106.893 73.3949 106.892 68.5343 106.888 63.6752ZM100.817 76.0072C99.1487 75.9666 97.8764 74.3761 97.9094 72.37C97.9425 70.3857 99.1689 69.003 100.878 69.0217C102.513 69.0405 103.893 70.7091 103.85 72.6184C103.81 74.4292 102.365 76.0447 100.817 76.0072Z" fill="#6C5044" fill-opacity="0.62"/>
<path d="M87.8196 65.7246C84.4234 65.7215 81.784 68.6744 81.771 72.4882C81.7581 76.2536 84.4607 79.3002 87.8081 79.2909C91.1871 79.2815 93.8165 76.2958 93.8093 72.4788C93.8022 68.5557 91.2934 65.7262 87.8196 65.7246ZM87.7909 76.0083C86.1309 75.9927 84.847 74.4693 84.8427 72.507C84.8384 70.4915 86.0562 69.0384 87.7651 69.0228C89.5127 69.0072 90.7793 70.4602 90.7836 72.4913C90.7894 74.5053 89.4969 76.0239 87.7909 76.0083Z" fill="#6C5044" fill-opacity="0.62"/>
<path d="M144.27 66.3604C140.91 66.401 138.301 69.4539 138.373 73.2615C138.443 77.0315 141.13 79.9704 144.453 79.9126C147.835 79.8532 150.455 76.8269 150.404 73.0412C150.348 69.0914 147.8 66.3166 144.27 66.3604ZM144.367 76.6347C142.705 76.6112 141.421 75.0817 141.423 73.1271C141.424 71.1147 142.646 69.6664 144.357 69.6523C146.097 69.6367 147.366 71.1022 147.369 73.1287C147.372 75.141 146.073 76.6581 144.367 76.6347Z" fill="#6C5044" fill-opacity="0.62"/>
</g>
<defs>
<clipPath id="clip0_2673_1954">
<rect width="97" height="23" fill="white" transform="translate(70 61)"/>
</clipPath>
</defs>
</svg>
